# MagicaVoxel @ Ephtracy

# group
g 地图6强红

# material
mtllib 地图6强红.mtl
usemtl palette

# normals
vn -1 0 0
vn 1 0 0
vn 0 0 1
vn 0 0 -1
vn 0 -1 0
vn 0 1 0

# texcoords
vt 0.0878906 0.5

# verts
v -36 19 -22
v -36 19 -23
v -36 23 -16
v -36 23 -22
v -36 24 -16
v -36 24 -23
v -30 19 -30
v -30 19 -38
v -30 20 -30
v -30 20 -38
v -17 19 -24
v -17 19 -39
v -17 20 -24
v -17 20 -39
v -15 12 4
v -15 12 2
v -15 14 4
v -15 14 2
v -5 18 -25
v -5 18 -27
v -5 19 -25
v -5 19 -27
v 3 14 -2
v 3 14 -20
v 3 15 -2
v 3 15 -20
v 7 39 42
v 7 39 31
v 7 40 42
v 7 40 31
v 8 15 -18
v 8 15 -20
v 8 16 -18
v 8 16 -20
v 31 39 41
v 31 39 34
v 31 40 41
v 31 40 34
v 44 24 32
v 44 24 20
v 44 25 32
v 44 25 20
v -30 19 -22
v -30 19 -23
v -30 23 -16
v -30 23 -22
v -30 24 -16
v -30 24 -23
v -20 19 -30
v -20 19 -38
v -20 20 -30
v -20 20 -38
v -16 19 -24
v -16 19 -39
v -16 20 -24
v -16 20 -39
v 5 14 -2
v 5 14 -20
v 5 15 -2
v 5 15 -20
v 5 18 -25
v 5 18 -27
v 5 19 -25
v 5 19 -27
v 6 12 4
v 6 12 2
v 6 13 4
v 6 13 2
v 17 13 4
v 17 13 2
v 17 14 4
v 17 14 2
v 19 39 42
v 19 39 31
v 19 40 42
v 19 40 31
v 23 15 -18
v 23 15 -20
v 23 16 -18
v 23 16 -20
v 39 39 41
v 39 39 34
v 39 40 41
v 39 40 34
v 50 24 32
v 50 24 20
v 50 25 32
v 50 25 20
v 7 39 42
v 7 40 42
v 19 39 42
v 19 40 42
v 31 39 41
v 31 40 41
v 39 39 41
v 39 40 41
v 44 24 32
v 44 25 32
v 50 24 32
v 50 25 32
v -15 12 4
v -15 14 4
v 6 12 4
v 6 13 4
v 17 13 4
v 17 14 4
v 3 14 -2
v 3 15 -2
v 5 14 -2
v 5 15 -2
v -36 23 -16
v -36 24 -16
v -30 23 -16
v -30 24 -16
v 8 15 -18
v 8 16 -18
v 23 15 -18
v 23 16 -18
v -36 19 -22
v -36 23 -22
v -30 19 -22
v -30 23 -22
v -17 19 -24
v -17 20 -24
v -16 19 -24
v -16 20 -24
v -5 18 -25
v -5 19 -25
v 5 18 -25
v 5 19 -25
v -30 19 -30
v -30 20 -30
v -20 19 -30
v -20 20 -30
v 31 39 34
v 31 40 34
v 39 39 34
v 39 40 34
v 7 39 31
v 7 40 31
v 19 39 31
v 19 40 31
v 44 24 20
v 44 25 20
v 50 24 20
v 50 25 20
v -15 12 2
v -15 14 2
v 6 12 2
v 6 13 2
v 17 13 2
v 17 14 2
v 3 14 -20
v 3 15 -20
v 5 14 -20
v 5 15 -20
v 8 15 -20
v 8 16 -20
v 23 15 -20
v 23 16 -20
v -36 19 -23
v -36 24 -23
v -30 19 -23
v -30 24 -23
v -5 18 -27
v -5 19 -27
v 5 18 -27
v 5 19 -27
v -30 19 -38
v -30 20 -38
v -20 19 -38
v -20 20 -38
v -17 19 -39
v -17 20 -39
v -16 19 -39
v -16 20 -39
v -15 12 4
v 6 12 4
v -15 12 2
v 6 12 2
v 6 13 4
v 17 13 4
v 6 13 2
v 17 13 2
v 3 14 -2
v 5 14 -2
v 3 14 -20
v 5 14 -20
v 8 15 -18
v 23 15 -18
v 8 15 -20
v 23 15 -20
v -5 18 -25
v 5 18 -25
v -5 18 -27
v 5 18 -27
v -36 19 -22
v -30 19 -22
v -36 19 -23
v -30 19 -23
v -17 19 -24
v -16 19 -24
v -30 19 -30
v -20 19 -30
v -30 19 -38
v -20 19 -38
v -17 19 -39
v -16 19 -39
v -36 23 -16
v -30 23 -16
v -36 23 -22
v -30 23 -22
v 44 24 32
v 50 24 32
v 44 24 20
v 50 24 20
v 7 39 42
v 19 39 42
v 31 39 41
v 39 39 41
v 31 39 34
v 39 39 34
v 7 39 31
v 19 39 31
v -15 14 4
v 17 14 4
v -15 14 2
v 17 14 2
v 3 15 -2
v 5 15 -2
v 3 15 -20
v 5 15 -20
v 8 16 -18
v 23 16 -18
v 8 16 -20
v 23 16 -20
v -5 19 -25
v 5 19 -25
v -5 19 -27
v 5 19 -27
v -17 20 -24
v -16 20 -24
v -30 20 -30
v -20 20 -30
v -30 20 -38
v -20 20 -38
v -17 20 -39
v -16 20 -39
v -36 24 -16
v -30 24 -16
v -36 24 -23
v -30 24 -23
v 44 25 32
v 50 25 32
v 44 25 20
v 50 25 20
v 7 40 42
v 19 40 42
v 31 40 41
v 39 40 41
v 31 40 34
v 39 40 34
v 7 40 31
v 19 40 31

# faces
f 4/1/1 2/1/1 1/1/1
f 5/1/1 4/1/1 3/1/1
f 6/1/1 2/1/1 4/1/1
f 6/1/1 4/1/1 5/1/1
f 9/1/1 8/1/1 7/1/1
f 10/1/1 8/1/1 9/1/1
f 13/1/1 12/1/1 11/1/1
f 14/1/1 12/1/1 13/1/1
f 17/1/1 16/1/1 15/1/1
f 18/1/1 16/1/1 17/1/1
f 21/1/1 20/1/1 19/1/1
f 22/1/1 20/1/1 21/1/1
f 25/1/1 24/1/1 23/1/1
f 26/1/1 24/1/1 25/1/1
f 29/1/1 28/1/1 27/1/1
f 30/1/1 28/1/1 29/1/1
f 33/1/1 32/1/1 31/1/1
f 34/1/1 32/1/1 33/1/1
f 37/1/1 36/1/1 35/1/1
f 38/1/1 36/1/1 37/1/1
f 41/1/1 40/1/1 39/1/1
f 42/1/1 40/1/1 41/1/1
f 43/1/2 44/1/2 46/1/2
f 45/1/2 46/1/2 47/1/2
f 46/1/2 44/1/2 48/1/2
f 47/1/2 46/1/2 48/1/2
f 49/1/2 50/1/2 51/1/2
f 51/1/2 50/1/2 52/1/2
f 53/1/2 54/1/2 55/1/2
f 55/1/2 54/1/2 56/1/2
f 57/1/2 58/1/2 59/1/2
f 59/1/2 58/1/2 60/1/2
f 61/1/2 62/1/2 63/1/2
f 63/1/2 62/1/2 64/1/2
f 65/1/2 66/1/2 67/1/2
f 67/1/2 66/1/2 68/1/2
f 69/1/2 70/1/2 71/1/2
f 71/1/2 70/1/2 72/1/2
f 73/1/2 74/1/2 75/1/2
f 75/1/2 74/1/2 76/1/2
f 77/1/2 78/1/2 79/1/2
f 79/1/2 78/1/2 80/1/2
f 81/1/2 82/1/2 83/1/2
f 83/1/2 82/1/2 84/1/2
f 85/1/2 86/1/2 87/1/2
f 87/1/2 86/1/2 88/1/2
f 91/1/3 90/1/3 89/1/3
f 92/1/3 90/1/3 91/1/3
f 95/1/3 94/1/3 93/1/3
f 96/1/3 94/1/3 95/1/3
f 99/1/3 98/1/3 97/1/3
f 100/1/3 98/1/3 99/1/3
f 103/1/3 102/1/3 101/1/3
f 104/1/3 102/1/3 103/1/3
f 105/1/3 102/1/3 104/1/3
f 106/1/3 102/1/3 105/1/3
f 109/1/3 108/1/3 107/1/3
f 110/1/3 108/1/3 109/1/3
f 113/1/3 112/1/3 111/1/3
f 114/1/3 112/1/3 113/1/3
f 117/1/3 116/1/3 115/1/3
f 118/1/3 116/1/3 117/1/3
f 121/1/3 120/1/3 119/1/3
f 122/1/3 120/1/3 121/1/3
f 125/1/3 124/1/3 123/1/3
f 126/1/3 124/1/3 125/1/3
f 129/1/3 128/1/3 127/1/3
f 130/1/3 128/1/3 129/1/3
f 133/1/3 132/1/3 131/1/3
f 134/1/3 132/1/3 133/1/3
f 135/1/4 136/1/4 137/1/4
f 137/1/4 136/1/4 138/1/4
f 139/1/4 140/1/4 141/1/4
f 141/1/4 140/1/4 142/1/4
f 143/1/4 144/1/4 145/1/4
f 145/1/4 144/1/4 146/1/4
f 147/1/4 148/1/4 149/1/4
f 149/1/4 148/1/4 150/1/4
f 150/1/4 148/1/4 151/1/4
f 151/1/4 148/1/4 152/1/4
f 153/1/4 154/1/4 155/1/4
f 155/1/4 154/1/4 156/1/4
f 157/1/4 158/1/4 159/1/4
f 159/1/4 158/1/4 160/1/4
f 161/1/4 162/1/4 163/1/4
f 163/1/4 162/1/4 164/1/4
f 165/1/4 166/1/4 167/1/4
f 167/1/4 166/1/4 168/1/4
f 169/1/4 170/1/4 171/1/4
f 171/1/4 170/1/4 172/1/4
f 173/1/4 174/1/4 175/1/4
f 175/1/4 174/1/4 176/1/4
f 179/1/5 178/1/5 177/1/5
f 180/1/5 178/1/5 179/1/5
f 183/1/5 182/1/5 181/1/5
f 184/1/5 182/1/5 183/1/5
f 187/1/5 186/1/5 185/1/5
f 188/1/5 186/1/5 187/1/5
f 191/1/5 190/1/5 189/1/5
f 192/1/5 190/1/5 191/1/5
f 195/1/5 194/1/5 193/1/5
f 196/1/5 194/1/5 195/1/5
f 199/1/5 198/1/5 197/1/5
f 200/1/5 198/1/5 199/1/5
f 205/1/5 204/1/5 203/1/5
f 206/1/5 204/1/5 205/1/5
f 207/1/5 202/1/5 201/1/5
f 208/1/5 202/1/5 207/1/5
f 211/1/5 210/1/5 209/1/5
f 212/1/5 210/1/5 211/1/5
f 215/1/5 214/1/5 213/1/5
f 216/1/5 214/1/5 215/1/5
f 221/1/5 220/1/5 219/1/5
f 222/1/5 220/1/5 221/1/5
f 223/1/5 218/1/5 217/1/5
f 224/1/5 218/1/5 223/1/5
f 225/1/6 226/1/6 227/1/6
f 227/1/6 226/1/6 228/1/6
f 229/1/6 230/1/6 231/1/6
f 231/1/6 230/1/6 232/1/6
f 233/1/6 234/1/6 235/1/6
f 235/1/6 234/1/6 236/1/6
f 237/1/6 238/1/6 239/1/6
f 239/1/6 238/1/6 240/1/6
f 243/1/6 244/1/6 245/1/6
f 245/1/6 244/1/6 246/1/6
f 241/1/6 242/1/6 247/1/6
f 247/1/6 242/1/6 248/1/6
f 249/1/6 250/1/6 251/1/6
f 251/1/6 250/1/6 252/1/6
f 253/1/6 254/1/6 255/1/6
f 255/1/6 254/1/6 256/1/6
f 259/1/6 260/1/6 261/1/6
f 261/1/6 260/1/6 262/1/6
f 257/1/6 258/1/6 263/1/6
f 263/1/6 258/1/6 264/1/6
