# 3ds Max Wavefront OBJ Exporter v0.97b - (c)2007 guruware
# 创建的文件:30.05.2018 21:01:52

mtllib qiu.mtl

#
# object GeoSphere02
#

v  1.7113 47.7271 -0.0000
v  25.5749 41.3329 -0.0000
v  1.7113 41.3329 -23.8635
v  43.0442 23.8635 -0.0000
v  27.8525 30.1853 -26.1412
v  1.7113 23.8635 -41.3329
v  49.4384 0.0000 -0.0000
v  43.0442 0.0000 -23.8635
v  25.5749 0.0000 -41.3329
v  1.7113 0.0000 -47.7271
v  -22.1522 41.3329 -0.0000
v  -24.4299 30.1853 -26.1412
v  -39.6216 23.8635 -0.0000
v  -22.1522 0.0000 -41.3329
v  -39.6216 0.0000 -23.8635
v  -46.0158 0.0000 -0.0000
v  1.7113 41.3329 23.8635
v  -24.4299 30.1853 26.1412
v  1.7113 23.8635 41.3329
v  -39.6216 0.0000 23.8635
v  -22.1522 0.0000 41.3329
v  1.7113 0.0000 47.7271
v  27.8525 30.1853 26.1412
v  25.5749 0.0000 41.3329
v  43.0442 0.0000 23.8635
v  1.7113 -47.7271 -0.0000
v  1.7113 -41.3329 -23.8635
v  25.5749 -41.3329 -0.0000
v  1.7113 -23.8635 -41.3329
v  27.8525 -30.1853 -26.1412
v  43.0442 -23.8635 -0.0000
v  -22.1522 -41.3329 -0.0000
v  -39.6216 -23.8635 -0.0000
v  -24.4299 -30.1853 -26.1412
v  1.7113 -41.3329 23.8635
v  1.7113 -23.8635 41.3329
v  -24.4299 -30.1853 26.1412
v  27.8525 -30.1853 26.1412
# 38 vertices

vn 0.0000 1.0000 -0.0000
vn 0.4917 0.8708 0.0000
vn 0.0000 0.8708 -0.4917
vn 0.8707 0.4917 0.0000
vn 0.5593 0.6118 -0.5593
vn 0.0000 0.4917 -0.8707
vn 1.0000 -0.0000 -0.0000
vn 0.8630 -0.0000 -0.5052
vn 0.5052 0.0000 -0.8630
vn 0.0000 -0.0000 -1.0000
vn -0.4917 0.8708 -0.0000
vn -0.5593 0.6118 -0.5593
vn -0.8707 0.4917 -0.0000
vn -0.5052 -0.0000 -0.8630
vn -0.8630 0.0000 -0.5052
vn -1.0000 -0.0000 -0.0000
vn -0.0000 0.8708 0.4917
vn -0.5593 0.6118 0.5593
vn -0.0000 0.4917 0.8707
vn -0.8630 -0.0000 0.5052
vn -0.5052 0.0000 0.8630
vn 0.0000 -0.0000 1.0000
vn 0.5593 0.6118 0.5593
vn 0.5052 -0.0000 0.8630
vn 0.8630 0.0000 0.5052
vn 0.0000 -1.0000 -0.0000
vn -0.0000 -0.8708 -0.4917
vn 0.4917 -0.8708 -0.0000
vn 0.0000 -0.4917 -0.8707
vn 0.5593 -0.6118 -0.5593
vn 0.8707 -0.4917 -0.0000
vn -0.4917 -0.8708 0.0000
vn -0.8707 -0.4917 0.0000
vn -0.5593 -0.6118 -0.5593
vn 0.0000 -0.8708 0.4917
vn -0.0000 -0.4917 0.8707
vn -0.5593 -0.6118 0.5593
vn 0.5593 -0.6118 0.5593
# 38 vertex normals

vt 0.8393 0.3814 50.7140
vt 0.6713 0.4084 50.7140
vt 0.9213 0.4084 50.7140
vt 0.7358 0.5967 50.7140
vt 0.7963 0.2930 50.7140
vt 0.5286 0.5860 50.7140
vt 0.7358 0.4301 50.7140
vt 0.8192 0.4301 50.7140
vt 0.9025 0.4301 50.7140
vt 0.5286 0.4193 50.7140
vt 0.6321 0.3707 50.7140
vt 0.7141 0.3977 50.7140
vt 0.5891 0.2823 50.7140
vt 0.7786 0.5860 50.7140
vt 0.6120 0.4193 50.7140
vt 0.6953 0.4193 50.7140
vt 0.7786 0.4193 50.7140
vt 0.3393 0.3814 50.7140
vt 0.1713 0.4084 50.7140
vt 0.4213 0.4084 50.7140
vt 0.2358 0.5967 50.7140
vt 0.2963 0.2930 50.7140
vt 0.4858 0.5967 50.7140
vt 0.2358 0.4301 50.7140
vt 0.3192 0.4301 50.7140
vt 0.4025 0.4301 50.7140
vt 0.4858 0.4301 50.7140
vt 0.5893 0.3814 50.7140
vt 0.5463 0.2930 50.7140
vt 0.5692 0.4301 50.7140
vt 0.6525 0.4301 50.7140
vt 0.8178 0.1237 50.7140
vt 0.4856 0.2796 50.7140
vt 0.6928 0.2904 50.7140
vt 0.5286 0.2527 50.7140
vt 0.8178 0.4058 50.7140
vt 0.7358 0.2634 50.7140
vt 0.6106 0.1130 50.7140
vt 0.7356 0.2796 50.7140
vt 0.7786 0.2527 50.7140
vt 0.6106 0.3950 50.7140
vt 0.3178 0.1237 50.7140
vt 0.4428 0.2904 50.7140
vt 0.1928 0.2904 50.7140
vt 0.4858 0.2634 50.7140
vt 0.3178 0.4058 50.7140
vt 0.2358 0.2634 50.7140
vt 0.5678 0.1237 50.7140
vt 0.5678 0.4058 50.7140
# 49 texture coords

g GeoSphere02
usemtl wire_148177026
s 1
f 1/1/1 2/2/2 3/3/3 
f 2/2/2 4/4/4 5/5/5 
f 2/2/2 5/5/5 3/3/3 
f 3/3/3 5/5/5 6/6/6 
f 4/4/4 7/7/7 8/8/8 
f 4/4/4 8/8/8 5/5/5 
f 5/5/5 8/8/8 9/9/9 
f 5/5/5 9/9/9 6/6/6 
f 6/6/6 9/9/9 10/10/10 
f 1/11/1 3/3/3 11/12/11 
f 3/3/3 6/6/6 12/13/12 
f 3/3/3 12/13/12 11/12/11 
f 11/12/11 12/13/12 13/14/13 
f 6/6/6 10/10/10 14/15/14 
f 6/6/6 14/15/14 12/13/12 
f 12/13/12 14/15/14 15/16/15 
f 12/13/12 15/16/15 13/14/13 
f 13/14/13 15/16/15 16/17/16 
f 1/18/1 11/19/11 17/20/17 
f 11/19/11 13/21/13 18/22/18 
f 11/19/11 18/22/18 17/20/17 
f 17/20/17 18/22/18 19/23/19 
f 13/21/13 16/24/16 20/25/20 
f 13/21/13 20/25/20 18/22/18 
f 18/22/18 20/25/20 21/26/21 
f 18/22/18 21/26/21 19/23/19 
f 19/23/19 21/26/21 22/27/22 
f 1/28/1 17/20/17 2/2/2 
f 17/20/17 19/23/19 23/29/23 
f 17/20/17 23/29/23 2/2/2 
f 2/2/2 23/29/23 4/4/4 
f 19/23/19 22/27/22 24/30/24 
f 19/23/19 24/30/24 23/29/23 
f 23/29/23 24/30/24 25/31/25 
f 23/29/23 25/31/25 4/4/4 
f 4/4/4 25/31/25 7/7/7 
f 26/32/26 27/33/27 28/34/28 
f 27/33/27 29/35/29 30/36/30 
f 27/33/27 30/36/30 28/34/28 
f 28/34/28 30/36/30 31/37/31 
f 29/35/29 10/10/10 9/9/9 
f 29/35/29 9/9/9 30/36/30 
f 30/36/30 9/9/9 8/8/8 
f 30/36/30 8/8/8 31/37/31 
f 31/37/31 8/8/8 7/7/7 
f 26/38/26 32/39/32 27/33/27 
f 32/39/32 33/40/33 34/41/34 
f 32/39/32 34/41/34 27/33/27 
f 27/33/27 34/41/34 29/35/29 
f 33/40/33 16/17/16 15/16/15 
f 33/40/33 15/16/15 34/41/34 
f 34/41/34 15/16/15 14/15/14 
f 34/41/34 14/15/14 29/35/29 
f 29/35/29 14/15/14 10/10/10 
f 26/42/26 35/43/35 32/44/32 
f 35/43/35 36/45/36 37/46/37 
f 35/43/35 37/46/37 32/44/32 
f 32/44/32 37/46/37 33/47/33 
f 36/45/36 22/27/22 21/26/21 
f 36/45/36 21/26/21 37/46/37 
f 37/46/37 21/26/21 20/25/20 
f 37/46/37 20/25/20 33/47/33 
f 33/47/33 20/25/20 16/24/16 
f 26/48/26 28/34/28 35/43/35 
f 28/34/28 31/37/31 38/49/38 
f 28/34/28 38/49/38 35/43/35 
f 35/43/35 38/49/38 36/45/36 
f 31/37/31 7/7/7 25/31/25 
f 31/37/31 25/31/25 38/49/38 
f 38/49/38 25/31/25 24/30/24 
f 38/49/38 24/30/24 36/45/36 
f 36/45/36 24/30/24 22/27/22 
# 0 polygons - 72 triangles

#
# object GeoSphere01
#

v  31.3967 51.2530 -22.4104
v  32.1368 50.7956 -22.4104
v  31.6254 50.7956 -23.1144
v  -11.6718 51.2530 -36.4043
v  -11.4431 50.7956 -37.1082
v  -12.2706 50.7956 -36.8393
v  -38.2896 51.2530 0.2320
v  -38.8884 50.7956 -0.2030
v  -38.8884 50.7956 0.6671
v  -11.6718 51.2530 36.8683
v  -12.2706 50.7956 37.3033
v  -11.4431 50.7956 37.5722
v  31.3967 51.2530 22.8745
v  31.6254 50.7956 23.5784
v  32.1368 50.7956 22.8745
v  63.3015 -11.5338 0.2320
v  63.1602 -12.2739 0.6671
v  63.1602 -12.2739 -0.2030
v  19.7216 -11.5338 -59.7506
v  20.0916 -12.2739 -59.4818
v  19.2641 -12.2739 -59.7506
v  -50.7923 -11.5338 -36.8393
v  -50.4222 -12.2739 -37.1082
v  -50.9336 -12.2739 -36.4043
v  -50.7923 -11.5338 37.3033
v  -50.9336 -12.2739 36.8683
v  -50.4222 -12.2739 37.5722
v  19.7216 -11.5338 60.2147
v  19.2641 -12.2739 60.2147
v  20.0916 -12.2739 59.9458
v  51.2563 11.5338 -36.8393
v  50.8862 12.2739 -37.1082
v  51.3977 12.2739 -36.4043
v  -19.2575 11.5338 -59.7506
v  -19.6276 12.2739 -59.4818
v  -18.8001 12.2739 -59.7506
v  -62.8375 11.5338 0.2320
v  -62.6961 12.2739 0.6671
v  -62.6961 12.2739 -0.2030
v  -19.2575 11.5338 60.2147
v  -18.8001 12.2739 60.2147
v  -19.6276 12.2739 59.9458
v  51.2563 11.5338 37.3033
v  51.3977 12.2739 36.8683
v  50.8863 12.2739 37.5722
v  12.1359 -51.2530 -36.4043
v  11.9072 -50.7956 -37.1082
v  12.7346 -50.7956 -36.8393
v  -30.9327 -51.2530 -22.4104
v  -31.6728 -50.7956 -22.4104
v  -31.1614 -50.7956 -23.1144
v  -30.9327 -51.2530 22.8745
v  -31.1614 -50.7956 23.5784
v  -31.6728 -50.7956 22.8745
v  12.1359 -51.2530 36.8683
v  12.7347 -50.7956 37.3033
v  11.9072 -50.7956 37.5722
v  38.7537 -51.2530 0.2320
v  39.3525 -50.7956 -0.2030
v  39.3525 -50.7956 0.6670
v  8.7326 40.9382 -5.9440
v  33.0466 25.9112 -5.9440
v  16.2460 25.9112 -29.0681
v  -3.0149 40.9382 -9.7610
v  4.4985 25.9112 -32.8850
v  -22.6854 25.9112 -24.0524
v  -10.2753 40.9382 0.2320
v  -29.9458 25.9112 -14.0594
v  -29.9458 25.9112 14.5235
v  -3.0149 40.9382 10.2250
v  -22.6854 25.9112 24.5165
v  4.4986 25.9112 33.3491
v  8.7326 40.9382 6.4080
v  16.2461 25.9112 29.5321
v  33.0467 25.9112 6.4080
v  41.5472 8.9101 0.2320
v  36.9037 -15.4040 14.5235
v  36.9037 -15.4040 -14.0594
v  12.9991 8.9101 -39.0611
v  25.1562 -15.4040 -30.2285
v  -2.0278 -15.4040 -39.0611
v  -33.1927 8.9101 -24.0524
v  -21.0357 -15.4040 -32.8850
v  -37.8363 -15.4040 -9.7610
v  -33.1927 8.9101 24.5165
v  -37.8363 -15.4040 10.2250
v  -21.0357 -15.4040 33.3491
v  12.9991 8.9101 39.5251
v  -2.0278 -15.4040 39.5251
v  25.1562 -15.4040 30.6925
v  33.6567 -8.9101 -24.0524
v  21.4997 15.4040 -32.8851
v  38.3003 15.4040 -9.7610
v  -12.5351 -8.9101 -39.0611
v  -24.6921 15.4040 -30.2285
v  2.4918 15.4040 -39.0611
v  -41.0832 -8.9101 0.2320
v  -36.4396 15.4040 14.5235
v  -36.4396 15.4040 -14.0594
v  -12.5351 -8.9101 39.5251
v  2.4918 15.4040 39.5251
v  -24.6921 15.4040 30.6925
v  33.6567 -8.9101 24.5165
v  38.3003 15.4040 10.2250
v  21.4997 15.4040 33.3491
v  3.4789 -40.9382 -9.7610
v  -4.0345 -25.9112 -32.8851
v  23.1494 -25.9112 -24.0524
v  -8.2686 -40.9382 -5.9440
v  -32.5826 -25.9112 -5.9440
v  -15.7820 -25.9112 -29.0681
v  -8.2686 -40.9382 6.4080
v  -15.7820 -25.9112 29.5321
v  -32.5826 -25.9112 6.4080
v  3.4789 -40.9382 10.2250
v  23.1494 -25.9112 24.5165
v  -4.0345 -25.9112 33.3491
v  10.7393 -40.9382 0.2320
v  30.4098 -25.9112 -14.0594
v  30.4098 -25.9112 14.5235
# 120 vertices

vn 0.4911 0.7947 -0.3568
vn -0.1876 0.7947 -0.5773
vn -0.6071 0.7947 0.0000
vn -0.1876 0.7947 0.5773
vn 0.4911 0.7947 0.3568
vn 0.9822 -0.1876 -0.0000
vn 0.3035 -0.1876 -0.9342
vn -0.7947 -0.1876 -0.5774
vn -0.7947 -0.1876 0.5774
vn 0.3035 -0.1876 0.9342
vn 0.7947 0.1876 -0.5774
vn -0.3035 0.1876 -0.9342
vn -0.9822 0.1876 0.0000
vn -0.3035 0.1876 0.9342
vn 0.7947 0.1876 0.5773
vn 0.1876 -0.7947 -0.5774
vn -0.4911 -0.7947 -0.3568
vn -0.4911 -0.7947 0.3568
vn 0.1876 -0.7947 0.5774
vn 0.6071 -0.7947 -0.0000
vn 0.3274 0.5297 0.7824
vn 0.7613 -0.3382 -0.5532
vn -0.6430 0.5297 -0.5532
vn 0.8453 0.5297 -0.0696
vn -0.2908 -0.3382 -0.8950
vn -0.7248 0.5297 0.4406
vn 0.1950 0.5297 -0.8254
vn -0.9411 -0.3382 0.0000
vn 0.1950 0.5297 0.8254
vn -0.7248 0.5297 -0.4406
vn -0.2908 -0.3382 0.8950
vn 0.8453 0.5297 0.0696
vn -0.6430 0.5297 0.5532
vn 0.7613 -0.3382 0.5532
vn 0.3274 0.5297 -0.7824
vn 0.3866 0.4114 0.8254
vn 0.1184 -0.9930 -0.0000
vn 0.3866 0.4114 -0.8254
vn 0.9045 0.4114 -0.1126
vn 0.0366 -0.9930 -0.1126
vn -0.6656 0.4114 -0.6227
vn 0.1724 0.4114 -0.8950
vn -0.0958 -0.9930 -0.0696
vn -0.7979 0.4114 0.4406
vn -0.7979 0.4114 -0.4406
vn -0.0958 -0.9930 0.0696
vn 0.1724 0.4114 0.8950
vn -0.6656 0.4114 0.6227
vn 0.0366 -0.9930 0.1126
vn 0.9045 0.4114 0.1126
vn -0.1724 -0.4114 -0.8950
vn 0.0958 0.9930 -0.0696
vn 0.7979 -0.4114 0.4406
vn -0.9045 -0.4114 -0.1126
vn -0.0366 0.9930 -0.1126
vn 0.6656 -0.4114 -0.6227
vn -0.3866 -0.4114 0.8254
vn -0.1184 0.9930 0.0000
vn -0.3866 -0.4114 -0.8254
vn 0.6656 -0.4114 0.6227
vn -0.0366 0.9930 0.1126
vn -0.9045 -0.4114 0.1126
vn 0.7979 -0.4114 -0.4406
vn 0.0958 0.9930 0.0696
vn -0.1724 -0.4114 0.8950
vn -0.8453 -0.5297 -0.0696
vn 0.2908 0.3382 -0.8950
vn 0.7248 -0.5297 0.4406
vn -0.3274 -0.5297 0.7824
vn -0.7613 0.3382 -0.5532
vn 0.6430 -0.5297 -0.5532
vn 0.6430 -0.5297 0.5532
vn -0.7613 0.3382 0.5532
vn -0.3274 -0.5297 -0.7824
vn 0.7248 -0.5297 -0.4406
vn -0.8453 -0.5297 0.0696
vn -0.1950 -0.5297 -0.8254
vn 0.9411 0.3382 -0.0000
vn -0.1950 -0.5297 0.8254
# 79 vertex normals

vt 0.0044 0.0075 0.0000
vt 0.0000 -0.0000 0.0000
vt 0.0087 0.0000 0.0000
vt -0.0000 0.0000 0.0000
vt 0.0000 0.0000 0.0000
vt -0.0000 -0.0000 0.0000
vt 0.0087 -0.0000 0.0000
vt -0.0044 0.0075 0.0000
vt -0.2795 -0.1162 0.0000
vt -0.0552 -0.2934 0.0000
vt -0.0068 0.0054 0.0000
vt 0.2307 -0.2934 0.0000
vt 0.0921 -0.0290 0.0000
vt 0.0834 -0.0290 0.0000
vt 0.4550 -0.1162 0.0000
vt 0.1823 0.0054 0.0000
vt 0.1755 -0.0000 0.0000
vt 0.1755 0.0000 0.0000
vt -0.1939 0.2324 0.0000
vt -0.2965 -0.0343 0.0000
vt 0.0031 0.0081 0.0000
vt -0.0107 -0.0343 0.0000
vt -0.1493 0.2301 0.0000
vt -0.1580 0.2301 0.0000
vt -0.1134 0.2324 0.0000
vt -0.3104 0.0081 0.0000
vt -0.3073 -0.0000 0.0000
vt -0.3073 0.0000 0.0000
vt 0.1970 -0.2243 0.0000
vt 0.2997 0.0425 0.0000
vt 0.1429 0.2720 0.0000
vt -0.1429 0.2720 0.0000
vt 0.0943 0.0425 0.0000
vt 0.3940 0.0000 0.0000
vt 0.3909 0.0081 0.0000
vt 0.3940 -0.0000 0.0000
vt 0.2726 0.1216 0.0000
vt 0.0483 0.2988 0.0000
vt -0.0483 0.2988 0.0000
vt -0.2726 0.1216 0.0000
vt 0.0068 0.0054 0.0000
vt 0.2838 0.1238 0.0000
vt 0.0595 0.3009 0.0000
vt 0.0112 0.0021 0.0000
# 44 texture coords

g GeoSphere01
usemtl wire_087224143
s 1
f 39/50/39 40/51/39 41/52/39 
f 42/50/40 43/53/40 44/52/40 
f 45/50/41 46/54/41 47/52/41 
f 48/50/42 49/54/42 50/52/42 
f 51/50/43 52/54/43 53/52/43 
f 54/50/44 55/55/44 56/56/44 
f 57/50/45 58/53/45 59/56/45 
f 60/50/46 61/55/46 62/52/46 
f 63/50/47 64/55/47 65/56/47 
f 66/50/48 67/51/48 68/56/48 
f 69/51/49 70/50/49 71/57/49 
f 72/53/50 73/50/50 74/57/50 
f 75/54/51 76/50/51 77/57/51 
f 78/54/52 79/50/52 80/57/52 
f 81/54/53 82/50/53 83/57/53 
f 84/53/54 85/50/54 86/57/54 
f 87/55/55 88/50/55 89/57/55 
f 90/55/56 91/50/56 92/57/56 
f 93/51/57 94/50/57 95/57/57 
f 96/55/58 97/50/58 98/57/58 
s off
f 99/58/59 100/59/59 40/54/59 39/60/59 
f 100/59/60 101/61/60 41/62/60 40/63/60 
f 101/61/61 99/64/61 39/65/61 41/66/61 
f 102/58/62 103/59/62 43/54/62 42/60/62 
f 103/59/63 104/61/63 44/62/63 43/63/63 
f 104/61/64 102/64/64 42/65/64 44/67/64 
f 105/58/65 106/59/65 46/54/65 45/60/65 
f 106/59/66 107/61/66 47/62/66 46/63/66 
f 107/61/67 105/64/67 45/65/67 47/66/67 
f 108/58/68 109/59/68 49/54/68 48/60/68 
f 109/59/69 110/61/69 50/62/69 49/63/69 
f 110/61/70 108/64/70 48/65/70 50/66/70 
f 111/58/71 112/59/71 52/54/71 51/60/71 
f 112/59/72 113/61/72 53/62/72 52/63/72 
f 113/61/73 111/64/73 51/65/73 53/67/73 
f 114/68/74 115/69/74 55/54/74 54/70/74 
f 115/69/75 116/71/75 56/72/75 55/73/75 
f 116/71/76 114/74/76 54/75/76 56/76/76 
f 117/68/77 118/69/77 58/54/77 57/70/77 
f 118/69/78 119/71/78 59/72/78 58/73/78 
f 119/71/79 117/74/79 57/75/79 59/76/79 
f 120/68/80 121/69/80 61/51/80 60/70/80 
f 121/69/81 122/71/81 62/72/81 61/73/81 
f 122/71/82 120/74/82 60/75/82 62/76/82 
f 123/68/83 124/69/83 64/53/83 63/70/83 
f 124/69/84 125/71/84 65/72/84 64/73/84 
f 125/71/85 123/74/85 63/75/85 65/77/85 
f 126/68/86 127/69/86 67/54/86 66/70/86 
f 127/69/87 128/71/87 68/72/87 67/73/87 
f 128/71/88 126/74/88 66/75/88 68/77/88 
f 129/78/89 130/79/89 70/70/89 69/51/89 
f 130/80/90 131/81/90 71/57/90 70/50/90 
f 131/82/91 129/78/91 69/83/91 71/84/91 
f 132/78/92 133/79/92 73/70/92 72/53/92 
f 133/80/93 134/81/93 74/57/93 73/50/93 
f 134/82/94 132/78/94 72/83/94 74/84/94 
f 135/78/95 136/79/95 76/70/95 75/54/95 
f 136/80/96 137/81/96 77/57/96 76/50/96 
f 137/82/97 135/78/97 75/85/97 77/84/97 
f 138/78/98 139/79/98 79/70/98 78/54/98 
f 139/80/99 140/81/99 80/57/99 79/50/99 
f 140/82/100 138/78/100 78/85/100 80/84/100 
f 141/78/101 142/79/101 82/70/101 81/54/101 
f 142/80/102 143/81/102 83/57/102 82/50/102 
f 143/82/103 141/78/103 81/85/103 83/84/103 
f 144/86/104 145/87/104 85/60/104 84/53/104 
f 145/80/105 146/81/105 86/57/105 85/50/105 
f 146/88/106 144/89/106 84/54/106 86/90/106 
f 147/86/107 148/87/107 88/60/107 87/55/107 
f 148/80/108 149/81/108 89/57/108 88/50/108 
f 149/88/109 147/89/109 87/53/109 89/90/109 
f 150/91/110 151/92/110 91/50/110 90/93/110 
f 151/80/111 152/81/111 92/57/111 91/50/111 
f 152/88/112 150/89/112 90/51/112 92/90/112 
f 153/86/113 154/87/113 94/60/113 93/54/113 
f 155/88/114 153/89/114 93/54/114 95/90/114 
f 156/86/115 157/87/115 97/60/115 96/55/115 
f 157/80/116 158/81/116 98/57/116 97/50/116 
f 158/88/117 156/89/117 96/55/117 98/90/117 
# 59 polygons - 20 triangles

