# MagicaVoxel @ Ephtracy

# group
g 人物

# material
mtllib 人物.mtl
usemtl palette

# normals
vn -1 0 0
vn 1 0 0
vn 0 0 1
vn 0 0 -1
vn 0 -1 0
vn 0 1 0

# texcoords
vt 0.771484 0.5
vt 0.791016 0.5
vt 0.958984 0.5

# verts
v -11 0 19
v -11 0 3
v -11 0 2
v -11 0 -13
v -11 47 19
v -11 47 3
v -11 47 2
v -11 47 -13
v -11 48 19
v -11 48 -13
v -11 64 19
v -11 64 -13
v 21 0 19
v 21 0 4
v 21 0 3
v 21 0 -13
v 21 47 19
v 21 47 4
v 21 47 3
v 21 47 -13
v 21 48 19
v 21 48 -13
v 21 64 19
v 21 64 -13
v -11 0 19
v -11 47 19
v -11 48 19
v -11 64 19
v 4 0 19
v 4 47 19
v 5 0 19
v 5 47 19
v 21 0 19
v 21 47 19
v 21 48 19
v 21 64 19
v -11 0 -13
v -11 47 -13
v -11 48 -13
v -11 64 -13
v 5 0 -13
v 5 47 -13
v 6 0 -13
v 6 47 -13
v 21 0 -13
v 21 47 -13
v 21 48 -13
v 21 64 -13
v -11 0 19
v 4 0 19
v 5 0 19
v 21 0 19
v 3 0 18
v 4 0 18
v 5 0 18
v 7 0 18
v 3 0 17
v 7 0 17
v 19 0 5
v 20 0 5
v 20 0 4
v 21 0 4
v -11 0 3
v -9 0 3
v 20 0 3
v 21 0 3
v -11 0 2
v -10 0 2
v -10 0 1
v -9 0 1
v 19 0 1
v 20 0 1
v 3 0 -11
v 5 0 -11
v 3 0 -12
v 5 0 -12
v 6 0 -12
v -11 0 -13
v 5 0 -13
v 6 0 -13
v 21 0 -13
v -11 64 19
v 21 64 19
v -11 64 -13
v 21 64 -13

# faces
f 5/2/1 2/2/1 1/2/1
f 6/1/1 3/1/1 2/1/1
f 6/2/1 2/2/1 5/2/1
f 7/2/1 4/2/1 3/2/1
f 7/1/1 3/1/1 6/1/1
f 8/2/1 4/2/1 7/2/1
f 9/1/1 6/1/1 5/1/1
f 9/1/1 7/1/1 6/1/1
f 9/1/1 8/1/1 7/1/1
f 10/1/1 8/1/1 9/1/1
f 11/3/1 10/3/1 9/3/1
f 12/3/1 10/3/1 11/3/1
f 13/2/2 14/2/2 17/2/2
f 14/1/2 15/1/2 18/1/2
f 17/2/2 14/2/2 18/2/2
f 15/2/2 16/2/2 19/2/2
f 18/1/2 15/1/2 19/1/2
f 19/2/2 16/2/2 20/2/2
f 17/1/2 18/1/2 21/1/2
f 18/1/2 19/1/2 21/1/2
f 19/1/2 20/1/2 21/1/2
f 21/1/2 20/1/2 22/1/2
f 21/3/2 22/3/2 23/3/2
f 23/3/2 22/3/2 24/3/2
f 29/2/3 26/2/3 25/2/3
f 30/1/3 27/1/3 26/1/3
f 30/2/3 26/2/3 29/2/3
f 31/1/3 30/1/3 29/1/3
f 32/1/3 27/1/3 30/1/3
f 32/1/3 30/1/3 31/1/3
f 33/2/3 32/2/3 31/2/3
f 34/1/3 27/1/3 32/1/3
f 34/2/3 32/2/3 33/2/3
f 35/3/3 28/3/3 27/3/3
f 35/1/3 27/1/3 34/1/3
f 36/3/3 28/3/3 35/3/3
f 37/2/4 38/2/4 41/2/4
f 38/1/4 39/1/4 42/1/4
f 41/2/4 38/2/4 42/2/4
f 41/1/4 42/1/4 43/1/4
f 42/1/4 39/1/4 44/1/4
f 43/1/4 42/1/4 44/1/4
f 43/2/4 44/2/4 45/2/4
f 44/1/4 39/1/4 46/1/4
f 45/2/4 44/2/4 46/2/4
f 39/3/4 40/3/4 47/3/4
f 46/1/4 39/1/4 47/1/4
f 47/3/4 40/3/4 48/3/4
f 53/2/5 50/2/5 49/2/5
f 54/1/5 51/1/5 50/1/5
f 54/2/5 50/2/5 53/2/5
f 55/2/5 52/2/5 51/2/5
f 55/1/5 51/1/5 54/1/5
f 56/2/5 52/2/5 55/2/5
f 57/1/5 54/1/5 53/1/5
f 57/2/5 53/2/5 49/2/5
f 57/1/5 56/1/5 55/1/5
f 57/1/5 55/1/5 54/1/5
f 58/2/5 52/2/5 56/2/5
f 58/1/5 56/1/5 57/1/5
f 59/2/5 58/2/5 57/2/5
f 59/2/5 52/2/5 58/2/5
f 60/2/5 52/2/5 59/2/5
f 61/1/5 60/1/5 59/1/5
f 61/2/5 52/2/5 60/2/5
f 62/2/5 52/2/5 61/2/5
f 63/2/5 57/2/5 49/2/5
f 63/2/5 59/2/5 57/2/5
f 64/2/5 59/2/5 63/2/5
f 65/1/5 62/1/5 61/1/5
f 65/1/5 61/1/5 59/1/5
f 66/1/5 62/1/5 65/1/5
f 67/1/5 64/1/5 63/1/5
f 68/1/5 64/1/5 67/1/5
f 69/2/5 68/2/5 67/2/5
f 69/1/5 64/1/5 68/1/5
f 70/2/5 59/2/5 64/2/5
f 70/1/5 64/1/5 69/1/5
f 71/1/5 65/1/5 59/1/5
f 71/2/5 59/2/5 70/2/5
f 72/2/5 66/2/5 65/2/5
f 72/1/5 65/1/5 71/1/5
f 73/2/5 70/2/5 69/2/5
f 73/2/5 71/2/5 70/2/5
f 73/2/5 72/2/5 71/2/5
f 74/2/5 72/2/5 73/2/5
f 75/2/5 73/2/5 69/2/5
f 75/1/5 74/1/5 73/1/5
f 76/2/5 72/2/5 74/2/5
f 76/1/5 74/1/5 75/1/5
f 77/2/5 72/2/5 76/2/5
f 78/2/5 69/2/5 67/2/5
f 78/2/5 75/2/5 69/2/5
f 78/2/5 76/2/5 75/2/5
f 79/1/5 77/1/5 76/1/5
f 79/2/5 76/2/5 78/2/5
f 80/2/5 72/2/5 77/2/5
f 80/1/5 77/1/5 79/1/5
f 81/2/5 66/2/5 72/2/5
f 81/2/5 72/2/5 80/2/5
f 82/3/6 83/3/6 84/3/6
f 84/3/6 83/3/6 85/3/6
