# MagicaVoxel @ Ephtracy

# group
g castle2

# material
mtllib castle2.mtl
usemtl palette

# normals
vn -1 0 0
vn 1 0 0
vn 0 0 1
vn 0 0 -1
vn 0 -1 0
vn 0 1 0

# texcoords
vt 0.689453 0.5
vt 0.748047 0.5
vt 0.958984 0.5

# verts
v -5 0 3
v -5 0 1
v -5 1 3
v -5 1 2
v -5 3 2
v -5 3 1
v -4 0 -1
v -4 0 -4
v -4 1 3
v -4 1 2
v -4 2 -1
v -4 2 -2
v -4 2 -3
v -4 2 -4
v -4 3 2
v -4 3 1
v -4 3 -1
v -4 3 -2
v -4 3 -3
v -4 3 -4
v -4 4 3
v -4 4 2
v -4 4 1
v -4 5 3
v -4 5 2
v -4 5 -2
v -4 5 -3
v -4 6 -2
v -4 6 -3
v -4 8 -2
v -4 8 -3
v -3 0 1
v -3 0 -0
v -3 0 -4
v -3 0 -5
v -3 1 -4
v -3 1 -5
v -3 3 -1
v -3 3 -2
v -3 3 -3
v -3 3 -4
v -3 4 2
v -3 4 1
v -3 4 -0
v -3 5 2
v -3 5 1
v -3 5 -2
v -3 5 -3
v -3 6 -2
v -3 6 -3
v -3 8 -2
v -3 8 -3
v -3 9 -3
v -3 9 -4
v -3 10 -2
v -3 10 -3
v -3 12 -1
v -3 12 -2
v -2 0 5
v -2 0 2
v -2 1 5
v -2 1 4
v -2 2 5
v -2 2 4
v -2 2 3
v -2 3 3
v -2 3 2
v -2 4 4
v -2 4 3
v -2 4 2
v -2 4 1
v -2 4 -0
v -2 5 3
v -2 5 2
v -2 5 1
v -2 5 -0
v -2 10 -2
v -2 10 -3
v -2 11 -2
v -2 11 -3
v -1 0 -0
v -1 0 -1
v -1 4 -0
v -1 5 1
v -1 5 -0
v -1 6 1
v -1 6 -0
v -1 6 -1
v -1 7 -0
v -1 7 -1
v 0 6 1
v 0 6 -0
v 0 7 1
v 0 7 -0
v 1 0 4
v 1 0 1
v 1 0 -4
v 1 0 -5
v 1 5 -4
v 1 5 -5
v 1 6 1
v 1 7 1
v 1 9 4
v 1 9 2
v 1 10 4
v 1 10 2
v 1 15 2
v 1 15 1
v 2 10 4
v 2 10 2
v 2 11 4
v 2 11 2
v 2 13 4
v 2 13 3
v 2 15 2
v 2 16 3
v 2 16 2
v 2 17 3
v 2 17 2
v -3 0 3
v -3 0 2
v -3 4 3
v -3 4 2
v -3 5 3
v -3 5 2
v -2 7 -3
v -2 7 -4
v -2 9 -3
v -2 9 -4
v -2 10 -1
v -2 10 -2
v -2 11 -2
v -2 12 -1
v -2 12 -2
v -1 0 5
v -1 0 4
v -1 0 -4
v -1 0 -5
v -1 1 5
v -1 1 4
v -1 1 -4
v -1 1 -5
v -1 2 5
v -1 2 4
v -1 3 4
v -1 3 3
v -1 4 4
v -1 4 3
v -1 4 2
v -1 4 -3
v -1 4 -4
v -1 5 3
v -1 5 2
v -1 6 -1
v -1 6 -2
v -1 7 -1
v -1 7 -3
v -1 7 -4
v -1 8 -2
v -1 9 -2
v -1 9 -3
v -1 10 -1
v -1 10 -2
v -1 10 -3
v -1 11 -2
v -1 11 -3
v 0 0 4
v 0 0 1
v 0 0 -3
v 0 0 -4
v 0 3 4
v 0 3 3
v 0 4 3
v 0 4 2
v 0 4 1
v 0 4 -3
v 0 4 -4
v 0 5 2
v 0 5 1
v 0 7 -2
v 0 7 -3
v 0 8 -2
v 0 8 -3
v 0 9 -2
v 0 9 -3
v 1 6 1
v 1 6 -1
v 1 6 -2
v 1 6 -3
v 1 7 1
v 1 7 -1
v 1 7 -2
v 1 7 -3
v 2 3 1
v 2 3 -1
v 2 3 -4
v 2 3 -5
v 2 4 -1
v 2 4 -2
v 2 4 -3
v 2 5 1
v 2 5 -1
v 2 5 -2
v 2 5 -4
v 2 5 -5
v 2 6 1
v 2 6 -1
v 2 6 -2
v 2 6 -3
v 2 13 2
v 2 13 1
v 2 15 2
v 2 15 1
v 3 0 1
v 3 0 -0
v 3 0 -4
v 3 0 -5
v 3 1 -0
v 3 1 -1
v 3 2 -1
v 3 2 -2
v 3 2 -3
v 3 2 -4
v 3 2 -5
v 3 3 1
v 3 3 -1
v 3 3 -4
v 3 3 -5
v 3 4 -1
v 3 4 -2
v 3 4 -3
v 3 5 2
v 3 5 1
v 3 5 -1
v 3 5 -2
v 3 6 -1
v 3 6 -2
v 3 8 2
v 3 8 1
v 3 9 4
v 3 9 3
v 3 10 4
v 3 10 3
v 3 11 4
v 3 11 3
v 3 13 4
v 3 13 3
v 3 13 2
v 3 13 1
v 3 16 3
v 3 16 2
v 3 17 3
v 3 17 2
v 4 0 -0
v 4 0 -1
v 4 1 -0
v 4 1 -1
v 4 1 -3
v 4 2 -1
v 4 2 -3
v 4 3 4
v 4 3 3
v 4 3 1
v 4 4 4
v 4 4 3
v 4 4 2
v 4 4 1
v 4 5 4
v 4 5 3
v 4 5 2
v 4 5 1
v 4 9 4
v 4 9 3
v 4 13 3
v 4 13 2
v 5 0 4
v 5 0 1
v 5 0 -1
v 5 0 -3
v 5 1 -1
v 5 1 -3
v 5 2 4
v 5 2 1
v 5 3 4
v 5 3 1
v -2 0 5
v -2 1 5
v -2 2 5
v -1 0 5
v -1 1 5
v -1 2 5
v -2 2 4
v -2 4 4
v -1 0 4
v -1 1 4
v -1 2 4
v -1 3 4
v -1 4 4
v 0 0 4
v 0 3 4
v 1 0 4
v 1 9 4
v 1 10 4
v 2 0 4
v 2 7 4
v 2 8 4
v 2 9 4
v 2 10 4
v 2 11 4
v 2 13 4
v 3 3 4
v 3 4 4
v 3 5 4
v 3 7 4
v 3 8 4
v 3 9 4
v 3 10 4
v 3 11 4
v 3 13 4
v 4 0 4
v 4 2 4
v 4 3 4
v 4 4 4
v 4 5 4
v 4 9 4
v 5 0 4
v 5 2 4
v 5 3 4
v -5 0 3
v -5 1 3
v -4 1 3
v -4 4 3
v -4 5 3
v -3 0 3
v -3 4 3
v -3 5 3
v -2 4 3
v -2 5 3
v -1 3 3
v -1 4 3
v -1 5 3
v 0 3 3
v 0 4 3
v 2 13 3
v 2 16 3
v 2 17 3
v 3 9 3
v 3 10 3
v 3 11 3
v 3 13 3
v 3 16 3
v 3 17 3
v 4 9 3
v 4 13 3
v -5 1 2
v -5 3 2
v -4 1 2
v -4 3 2
v -3 0 2
v -3 4 2
v -3 5 2
v -2 0 2
v -2 3 2
v -2 4 2
v -2 5 2
v -1 4 2
v -1 5 2
v 0 4 2
v 0 5 2
v 1 10 2
v 1 15 2
v 2 10 2
v 2 11 2
v 2 15 2
v -1 5 1
v -1 6 1
v 0 0 1
v 0 4 1
v 0 5 1
v 0 6 1
v 0 7 1
v 1 0 1
v 1 6 1
v 1 7 1
v -1 6 -0
v -1 7 -0
v 0 6 -0
v 0 7 -0
v 3 0 -0
v 3 1 -0
v 4 0 -0
v 4 1 -0
v -4 0 -1
v -4 2 -1
v -4 3 -1
v -3 2 -1
v -3 3 -1
v -3 12 -1
v -2 10 -1
v -2 12 -1
v -1 0 -1
v -1 6 -1
v -1 7 -1
v -1 10 -1
v 2 3 -1
v 2 4 -1
v 2 5 -1
v 2 6 -1
v 3 1 -1
v 3 2 -1
v 3 3 -1
v 3 4 -1
v 3 5 -1
v 3 6 -1
v 4 0 -1
v 4 1 -1
v 4 2 -1
v 5 0 -1
v 5 1 -1
v -4 3 -2
v -4 5 -2
v -4 6 -2
v -4 8 -2
v -3 3 -2
v -3 5 -2
v -3 6 -2
v -3 8 -2
v -2 10 -2
v -2 11 -2
v -1 6 -2
v -1 8 -2
v -1 9 -2
v -1 10 -2
v -1 11 -2
v 0 7 -2
v 0 8 -2
v 0 9 -2
v 1 6 -2
v 1 7 -2
v 1 0 -4
v 1 5 -4
v 2 2 -4
v 2 3 -4
v 2 5 -4
v 3 0 -4
v 3 2 -4
v 3 3 -4
v -4 4 2
v -4 5 2
v -3 4 2
v -3 5 2
v 2 13 2
v 2 15 2
v 2 16 2
v 2 17 2
v 3 5 2
v 3 8 2
v 3 13 2
v 3 16 2
v 3 17 2
v 4 5 2
v 4 13 2
v -5 0 1
v -5 3 1
v -4 3 1
v -4 4 1
v -3 0 1
v -3 4 1
v -3 5 1
v -2 4 1
v -2 5 1
v 1 6 1
v 1 7 1
v 1 15 1
v 2 3 1
v 2 5 1
v 2 6 1
v 2 8 1
v 2 13 1
v 2 15 1
v 3 0 1
v 3 3 1
v 3 4 1
v 3 5 1
v 3 8 1
v 3 13 1
v 4 2 1
v 4 3 1
v 4 4 1
v 4 5 1
v 5 0 1
v 5 2 1
v 5 3 1
v -3 0 -0
v -3 4 -0
v -2 4 -0
v -2 5 -0
v -1 0 -0
v -1 4 -0
v -1 5 -0
v -1 6 -1
v -1 7 -1
v 1 6 -1
v 1 7 -1
v -3 10 -2
v -3 12 -2
v -2 10 -2
v -2 11 -2
v -2 12 -2
v 2 4 -2
v 2 5 -2
v 2 6 -2
v 3 4 -2
v 3 5 -2
v 3 6 -2
v -4 3 -3
v -4 5 -3
v -4 6 -3
v -4 8 -3
v -3 3 -3
v -3 5 -3
v -3 6 -3
v -3 8 -3
v -3 9 -3
v -3 10 -3
v -2 7 -3
v -2 9 -3
v -2 10 -3
v -2 11 -3
v -1 4 -3
v -1 7 -3
v -1 8 -3
v -1 9 -3
v -1 10 -3
v -1 11 -3
v 0 0 -3
v 0 4 -3
v 0 5 -3
v 0 7 -3
v 0 8 -3
v 0 9 -3
v 1 4 -3
v 1 5 -3
v 1 6 -3
v 1 7 -3
v 2 2 -3
v 2 4 -3
v 2 6 -3
v 3 2 -3
v 3 4 -3
v 4 1 -3
v 4 2 -3
v 5 0 -3
v 5 1 -3
v -4 0 -4
v -4 2 -4
v -4 3 -4
v -3 0 -4
v -3 1 -4
v -3 2 -4
v -3 3 -4
v -3 9 -4
v -2 3 -4
v -2 7 -4
v -2 9 -4
v -1 0 -4
v -1 1 -4
v -1 3 -4
v -1 4 -4
v -1 7 -4
v 0 0 -4
v 0 4 -4
v -3 0 -5
v -3 1 -5
v -1 0 -5
v -1 1 -5
v 1 0 -5
v 1 5 -5
v 2 2 -5
v 2 3 -5
v 2 5 -5
v 3 0 -5
v 3 2 -5
v 3 3 -5
v -2 0 5
v -1 0 5
v -1 0 4
v 0 0 4
v 1 0 4
v 2 0 4
v 4 0 4
v 5 0 4
v -5 0 3
v -3 0 3
v 2 0 3
v 4 0 3
v -3 0 2
v -2 0 2
v -5 0 1
v -3 0 1
v 0 0 1
v 1 0 1
v 3 0 1
v 5 0 1
v -3 0 -0
v -1 0 -0
v 3 0 -0
v 4 0 -0
v -4 0 -1
v -1 0 -1
v 4 0 -1
v 5 0 -1
v 0 0 -3
v 5 0 -3
v -4 0 -4
v -3 0 -4
v -1 0 -4
v 0 0 -4
v 1 0 -4
v 3 0 -4
v -3 0 -5
v -1 0 -5
v 1 0 -5
v 3 0 -5
v -5 1 3
v -4 1 3
v -5 1 2
v -4 1 2
v 3 1 -0
v 4 1 -0
v 3 1 -1
v 4 1 -1
v 5 1 -1
v 4 1 -3
v 5 1 -3
v -3 1 -4
v -1 1 -4
v -3 1 -5
v -1 1 -5
v -2 2 5
v -1 2 5
v -2 2 4
v -1 2 4
v 3 2 -1
v 4 2 -1
v 3 2 -2
v 3 2 -3
v 4 2 -3
v -1 3 4
v 0 3 4
v 4 3 4
v 5 3 4
v -1 3 3
v 0 3 3
v 4 3 3
v -5 3 2
v -4 3 2
v -5 3 1
v -4 3 1
v 2 3 1
v 3 3 1
v 4 3 1
v 5 3 1
v -4 3 -1
v -3 3 -1
v 2 3 -1
v 3 3 -1
v -4 3 -2
v -3 3 -2
v -4 3 -3
v -3 3 -3
v -4 3 -4
v -3 3 -4
v 2 3 -4
v 3 3 -4
v 2 3 -5
v 3 3 -5
v -2 4 4
v -1 4 4
v -2 4 3
v -1 4 3
v 0 4 3
v -4 4 2
v -3 4 2
v -1 4 2
v 0 4 2
v -4 4 1
v -3 4 1
v -2 4 1
v -3 4 -0
v -2 4 -0
v 2 4 -2
v 3 4 -2
v -1 4 -3
v 0 4 -3
v 2 4 -3
v 3 4 -3
v -1 4 -4
v 0 4 -4
v -4 5 3
v -3 5 3
v -2 5 3
v -1 5 3
v -4 5 2
v -3 5 2
v -2 5 2
v -1 5 2
v 0 5 2
v 3 5 2
v 4 5 2
v -3 5 1
v -2 5 1
v -1 5 1
v 0 5 1
v 3 5 1
v 4 5 1
v -2 5 -0
v -1 5 -0
v 1 5 -4
v 2 5 -4
v 1 5 -5
v 2 5 -5
v -1 6 1
v 0 6 1
v 1 6 1
v 2 6 1
v -1 6 -0
v 0 6 -0
v -1 6 -1
v 1 6 -1
v 2 6 -1
v 3 6 -1
v -1 6 -2
v 1 6 -2
v 2 6 -2
v 3 6 -2
v 1 6 -3
v 2 6 -3
v 0 7 1
v 1 7 1
v -1 7 -0
v 0 7 -0
v -1 7 -1
v 1 7 -1
v 0 7 -2
v 1 7 -2
v -2 7 -3
v -1 7 -3
v 0 7 -3
v 1 7 -3
v -2 7 -4
v -1 7 -4
v -4 8 -2
v -3 8 -2
v -4 8 -3
v -3 8 -3
v 3 9 4
v 4 9 4
v 3 9 3
v 4 9 3
v -1 9 -2
v 0 9 -2
v -3 9 -3
v -2 9 -3
v -1 9 -3
v 0 9 -3
v -3 9 -4
v -2 9 -4
v 1 10 4
v 2 10 4
v 1 10 2
v 2 10 2
v -2 10 -1
v -1 10 -1
v -3 10 -2
v -2 10 -2
v -1 10 -2
v -3 10 -3
v -2 10 -3
v -2 11 -2
v -1 11 -2
v -2 11 -3
v -1 11 -3
v -3 12 -1
v -2 12 -1
v -3 12 -2
v -2 12 -2
v 2 13 4
v 3 13 4
v 2 13 3
v 3 13 3
v 4 13 3
v 2 13 2
v 3 13 2
v 4 13 2
v 2 13 1
v 3 13 1
v 1 15 2
v 2 15 2
v 1 15 1
v 2 15 1
v 2 17 3
v 3 17 3
v 2 17 2
v 3 17 2

# faces
f 3/1/1 2/1/1 1/1/1
f 4/1/1 2/1/1 3/1/1
f 5/1/1 2/1/1 4/1/1
f 6/1/1 2/1/1 5/1/1
f 11/1/1 8/1/1 7/1/1
f 12/1/1 8/1/1 11/1/1
f 13/1/1 8/1/1 12/1/1
f 14/1/1 8/1/1 13/1/1
f 15/1/1 10/1/1 9/1/1
f 17/3/1 12/3/1 11/3/1
f 18/1/1 13/1/1 12/1/1
f 18/3/1 12/3/1 17/3/1
f 19/3/1 14/3/1 13/3/1
f 19/1/1 13/1/1 18/1/1
f 20/3/1 14/3/1 19/3/1
f 21/1/1 16/1/1 15/1/1
f 21/1/1 15/1/1 9/1/1
f 22/1/1 16/1/1 21/1/1
f 23/1/1 16/1/1 22/1/1
f 24/3/1 22/3/1 21/3/1
f 25/3/1 22/3/1 24/3/1
f 26/1/1 19/1/1 18/1/1
f 27/1/1 19/1/1 26/1/1
f 28/3/1 27/3/1 26/3/1
f 29/3/1 27/3/1 28/3/1
f 30/1/1 29/1/1 28/1/1
f 31/1/1 29/1/1 30/1/1
f 36/1/1 35/1/1 34/1/1
f 37/1/1 35/1/1 36/1/1
f 43/1/1 33/1/1 32/1/1
f 44/1/1 33/1/1 43/1/1
f 45/3/1 43/3/1 42/3/1
f 46/3/1 43/3/1 45/3/1
f 47/1/1 39/1/1 38/1/1
f 48/1/1 41/1/1 40/1/1
f 49/1/1 47/1/1 38/1/1
f 50/1/1 41/1/1 48/1/1
f 51/1/1 49/1/1 38/1/1
f 52/1/1 41/1/1 50/1/1
f 53/1/1 41/1/1 52/1/1
f 53/1/1 52/1/1 51/1/1
f 54/1/1 41/1/1 53/1/1
f 55/1/1 51/1/1 38/1/1
f 55/1/1 53/1/1 51/1/1
f 56/1/1 53/1/1 55/1/1
f 57/1/1 55/1/1 38/1/1
f 58/1/1 55/1/1 57/1/1
f 61/1/1 60/1/1 59/1/1
f 62/1/1 60/1/1 61/1/1
f 63/3/1 62/3/1 61/3/1
f 64/1/1 60/1/1 62/1/1
f 64/3/1 62/3/1 63/3/1
f 65/1/1 60/1/1 64/1/1
f 66/1/1 60/1/1 65/1/1
f 66/3/1 65/3/1 64/3/1
f 67/1/1 60/1/1 66/1/1
f 68/3/1 66/3/1 64/3/1
f 68/3/1 67/3/1 66/3/1
f 69/3/1 67/3/1 68/3/1
f 70/3/1 67/3/1 69/3/1
f 73/3/1 70/3/1 69/3/1
f 74/3/1 70/3/1 73/3/1
f 75/3/1 72/3/1 71/3/1
f 76/3/1 72/3/1 75/3/1
f 79/3/1 78/3/1 77/3/1
f 80/3/1 78/3/1 79/3/1
f 83/1/1 82/1/1 81/1/1
f 85/1/1 82/1/1 83/1/1
f 86/1/1 85/1/1 84/1/1
f 87/1/1 82/1/1 85/1/1
f 87/1/1 85/1/1 86/1/1
f 88/1/1 82/1/1 87/1/1
f 89/3/1 88/3/1 87/3/1
f 90/3/1 88/3/1 89/3/1
f 93/3/1 92/3/1 91/3/1
f 94/3/1 92/3/1 93/3/1
f 99/1/1 98/1/1 97/1/1
f 100/1/1 98/1/1 99/1/1
f 101/1/1 96/1/1 95/1/1
f 102/1/1 101/1/1 95/1/1
f 103/1/1 102/1/1 95/1/1
f 104/1/1 102/1/1 103/1/1
f 105/3/1 104/3/1 103/3/1
f 106/1/1 102/1/1 104/1/1
f 106/3/1 104/3/1 105/3/1
f 107/1/1 102/1/1 106/1/1
f 108/1/1 102/1/1 107/1/1
f 111/3/1 110/3/1 109/3/1
f 112/3/1 110/3/1 111/3/1
f 113/1/1 112/1/1 111/1/1
f 114/1/1 112/1/1 113/1/1
f 115/1/1 112/1/1 114/1/1
f 116/1/1 115/1/1 114/1/1
f 117/1/1 115/1/1 116/1/1
f 118/3/1 117/3/1 116/3/1
f 119/3/1 117/3/1 118/3/1
f 120/1/2 121/1/2 122/1/2
f 122/1/2 121/1/2 123/1/2
f 122/3/2 123/3/2 124/3/2
f 124/3/2 123/3/2 125/3/2
f 126/1/2 127/1/2 128/1/2
f 128/1/2 127/1/2 129/1/2
f 130/1/2 131/1/2 132/1/2
f 130/1/2 132/1/2 133/1/2
f 133/1/2 132/1/2 134/1/2
f 135/1/2 136/1/2 139/1/2
f 139/1/2 136/1/2 140/1/2
f 137/1/2 138/1/2 141/1/2
f 141/1/2 138/1/2 142/1/2
f 139/3/2 140/3/2 143/3/2
f 143/3/2 140/3/2 144/3/2
f 145/3/2 146/3/2 147/3/2
f 147/3/2 146/3/2 148/3/2
f 148/3/2 149/3/2 152/3/2
f 152/3/2 149/3/2 153/3/2
f 154/1/2 155/1/2 156/1/2
f 150/2/2 151/2/2 157/2/2
f 157/2/2 151/2/2 158/2/2
f 156/1/2 155/1/2 159/1/2
f 156/1/2 159/1/2 160/1/2
f 156/1/2 160/1/2 162/1/2
f 160/1/2 161/1/2 162/1/2
f 162/1/2 161/1/2 163/1/2
f 163/1/2 161/1/2 164/1/2
f 163/3/2 164/3/2 165/3/2
f 165/3/2 164/3/2 166/3/2
f 167/1/2 168/1/2 171/1/2
f 171/1/2 168/1/2 172/1/2
f 172/1/2 168/1/2 173/1/2
f 173/1/2 168/1/2 174/1/2
f 174/1/2 168/1/2 175/1/2
f 169/1/2 170/1/2 176/1/2
f 176/1/2 170/1/2 177/1/2
f 174/3/2 175/3/2 178/3/2
f 178/3/2 175/3/2 179/3/2
f 180/1/2 181/1/2 182/1/2
f 182/1/2 181/1/2 183/1/2
f 182/3/2 183/3/2 184/3/2
f 184/3/2 183/3/2 185/3/2
f 186/3/2 187/3/2 190/3/2
f 190/3/2 187/3/2 191/3/2
f 188/1/2 189/1/2 192/1/2
f 192/1/2 189/1/2 193/1/2
f 194/1/2 195/1/2 198/1/2
f 194/1/2 198/1/2 201/1/2
f 201/1/2 198/1/2 202/1/2
f 199/3/2 200/3/2 203/3/2
f 196/1/2 197/1/2 204/1/2
f 204/1/2 197/1/2 205/1/2
f 201/3/2 202/3/2 206/3/2
f 206/3/2 202/3/2 207/3/2
f 203/3/2 200/3/2 208/3/2
f 208/3/2 200/3/2 209/3/2
f 210/1/2 211/1/2 212/1/2
f 212/1/2 211/1/2 213/1/2
f 214/1/2 215/1/2 218/1/2
f 218/1/2 219/1/2 220/1/2
f 216/1/2 217/1/2 223/1/2
f 223/1/2 217/1/2 224/1/2
f 214/1/2 218/1/2 225/1/2
f 218/1/2 220/1/2 225/1/2
f 220/1/2 221/1/2 225/1/2
f 225/1/2 221/1/2 226/1/2
f 223/3/2 224/3/2 227/3/2
f 227/3/2 224/3/2 228/3/2
f 226/1/2 221/1/2 229/1/2
f 221/2/2 222/2/2 230/2/2
f 229/1/2 221/1/2 230/1/2
f 230/2/2 222/2/2 231/2/2
f 229/2/2 230/2/2 234/2/2
f 234/2/2 230/2/2 235/2/2
f 234/3/2 235/3/2 236/3/2
f 236/3/2 235/3/2 237/3/2
f 232/2/2 233/2/2 238/2/2
f 238/2/2 233/2/2 239/2/2
f 240/2/2 241/2/2 242/2/2
f 242/2/2 241/2/2 243/2/2
f 242/3/2 243/3/2 244/3/2
f 244/3/2 243/3/2 245/3/2
f 244/1/2 245/1/2 246/1/2
f 246/1/2 245/1/2 247/1/2
f 238/1/2 239/1/2 248/1/2
f 248/1/2 239/1/2 249/1/2
f 247/1/2 248/1/2 250/1/2
f 250/1/2 248/1/2 251/1/2
f 250/3/2 251/3/2 252/3/2
f 252/3/2 251/3/2 253/3/2
f 254/1/2 255/1/2 256/1/2
f 256/1/2 255/1/2 257/1/2
f 257/1/2 258/1/2 259/1/2
f 259/1/2 258/1/2 260/1/2
f 261/3/2 262/3/2 264/3/2
f 262/1/2 263/1/2 265/1/2
f 264/3/2 262/3/2 265/3/2
f 265/1/2 263/1/2 266/1/2
f 266/1/2 263/1/2 267/1/2
f 264/2/2 265/2/2 268/2/2
f 265/1/2 266/1/2 269/1/2
f 268/2/2 265/2/2 269/2/2
f 266/2/2 267/2/2 270/2/2
f 269/1/2 266/1/2 270/1/2
f 270/2/2 267/2/2 271/2/2
f 268/1/2 269/1/2 272/1/2
f 269/1/2 270/1/2 272/1/2
f 272/1/2 270/1/2 273/1/2
f 273/1/2 270/1/2 274/1/2
f 274/1/2 270/1/2 275/1/2
f 278/1/2 279/1/2 280/1/2
f 280/1/2 279/1/2 281/1/2
f 276/1/2 277/1/2 282/1/2
f 282/1/2 277/1/2 283/1/2
f 282/3/2 283/3/2 284/3/2
f 284/3/2 283/3/2 285/3/2
f 289/1/3 287/1/3 286/1/3
f 290/3/3 288/3/3 287/3/3
f 290/1/3 287/1/3 289/1/3
f 291/3/3 288/3/3 290/3/3
f 296/3/3 293/3/3 292/3/3
f 297/3/3 293/3/3 296/3/3
f 298/3/3 293/3/3 297/3/3
f 299/1/3 295/1/3 294/1/3
f 299/1/3 296/1/3 295/1/3
f 299/1/3 297/1/3 296/1/3
f 300/1/3 297/1/3 299/1/3
f 304/1/3 302/1/3 301/1/3
f 305/1/3 302/1/3 304/1/3
f 306/1/3 302/1/3 305/1/3
f 307/3/3 303/3/3 302/3/3
f 307/1/3 302/1/3 306/1/3
f 308/3/3 303/3/3 307/3/3
f 311/2/3 305/2/3 304/2/3
f 312/2/3 305/2/3 311/2/3
f 313/2/3 305/2/3 312/2/3
f 314/1/3 306/1/3 305/1/3
f 314/2/3 305/2/3 313/2/3
f 315/2/3 307/2/3 306/2/3
f 315/1/3 306/1/3 314/1/3
f 315/2/3 308/2/3 307/2/3
f 316/2/3 308/2/3 315/2/3
f 317/3/3 309/3/3 308/3/3
f 317/2/3 308/2/3 316/2/3
f 318/1/3 310/1/3 309/1/3
f 318/3/3 309/3/3 317/3/3
f 319/1/3 310/1/3 318/1/3
f 320/2/3 311/2/3 304/2/3
f 321/2/3 311/2/3 320/2/3
f 322/3/3 312/3/3 311/3/3
f 322/2/3 311/2/3 321/2/3
f 323/2/3 313/2/3 312/2/3
f 323/3/3 312/3/3 322/3/3
f 324/1/3 314/1/3 313/1/3
f 324/2/3 313/2/3 323/2/3
f 324/1/3 316/1/3 315/1/3
f 324/1/3 315/1/3 314/1/3
f 325/1/3 316/1/3 324/1/3
f 326/1/3 321/1/3 320/1/3
f 327/3/3 322/3/3 321/3/3
f 327/1/3 321/1/3 326/1/3
f 328/3/3 322/3/3 327/3/3
f 331/1/3 330/1/3 329/1/3
f 334/1/3 331/1/3 329/1/3
f 334/1/3 332/1/3 331/1/3
f 335/3/3 333/3/3 332/3/3
f 335/1/3 332/1/3 334/1/3
f 336/3/3 333/3/3 335/3/3
f 340/3/3 338/3/3 337/3/3
f 341/3/3 338/3/3 340/3/3
f 342/1/3 340/1/3 339/1/3
f 343/1/3 340/1/3 342/1/3
f 350/1/3 345/1/3 344/1/3
f 351/3/3 346/3/3 345/3/3
f 351/1/3 345/1/3 350/1/3
f 352/3/3 346/3/3 351/3/3
f 353/1/3 349/1/3 348/1/3
f 353/1/3 350/1/3 349/1/3
f 353/1/3 348/1/3 347/1/3
f 354/1/3 350/1/3 353/1/3
f 357/1/3 356/1/3 355/1/3
f 358/1/3 356/1/3 357/1/3
f 362/1/3 360/1/3 359/1/3
f 363/1/3 360/1/3 362/1/3
f 364/3/3 361/3/3 360/3/3
f 364/1/3 360/1/3 363/1/3
f 365/3/3 361/3/3 364/3/3
f 368/3/3 367/3/3 366/3/3
f 369/3/3 367/3/3 368/3/3
f 372/1/3 371/1/3 370/1/3
f 373/1/3 371/1/3 372/1/3
f 374/1/3 371/1/3 373/1/3
f 379/1/3 376/1/3 375/1/3
f 380/1/3 376/1/3 379/1/3
f 382/1/3 378/1/3 377/1/3
f 382/1/3 379/1/3 378/1/3
f 382/1/3 380/1/3 379/1/3
f 383/3/3 381/3/3 380/3/3
f 383/1/3 380/1/3 382/1/3
f 384/3/3 381/3/3 383/3/3
f 387/3/3 386/3/3 385/3/3
f 388/3/3 386/3/3 387/3/3
f 391/1/3 390/1/3 389/1/3
f 392/1/3 390/1/3 391/1/3
f 396/1/3 394/1/3 393/1/3
f 396/3/3 395/3/3 394/3/3
f 397/3/3 395/3/3 396/3/3
f 399/1/3 397/1/3 396/1/3
f 399/1/3 398/1/3 397/1/3
f 400/1/3 398/1/3 399/1/3
f 401/1/3 396/1/3 393/1/3
f 401/1/3 399/1/3 396/1/3
f 402/1/3 399/1/3 401/1/3
f 403/1/3 399/1/3 402/1/3
f 404/1/3 399/1/3 403/1/3
f 411/1/3 406/1/3 405/1/3
f 412/2/3 407/2/3 406/2/3
f 412/1/3 406/1/3 411/1/3
f 413/3/3 408/3/3 407/3/3
f 413/2/3 407/2/3 412/2/3
f 414/3/3 408/3/3 413/3/3
f 416/1/3 410/1/3 409/1/3
f 417/1/3 410/1/3 416/1/3
f 418/1/3 416/1/3 415/1/3
f 419/1/3 416/1/3 418/1/3
f 424/1/3 421/1/3 420/1/3
f 425/3/3 422/3/3 421/3/3
f 425/1/3 421/1/3 424/1/3
f 426/1/3 423/1/3 422/1/3
f 426/3/3 422/3/3 425/3/3
f 427/1/3 423/1/3 426/1/3
f 433/3/3 429/3/3 428/3/3
f 434/3/3 429/3/3 433/3/3
f 435/1/3 431/1/3 430/1/3
f 436/3/3 432/3/3 431/3/3
f 436/1/3 431/1/3 435/1/3
f 437/3/3 432/3/3 436/3/3
f 438/1/3 435/1/3 430/1/3
f 439/1/3 435/1/3 438/1/3
f 442/1/3 441/1/3 440/1/3
f 443/1/3 441/1/3 442/1/3
f 444/1/3 441/1/3 443/1/3
f 445/1/3 442/1/3 440/1/3
f 446/3/3 443/3/3 442/3/3
f 446/1/3 442/1/3 445/1/3
f 447/3/3 443/3/3 446/3/3
f 448/3/4 449/3/4 450/3/4
f 450/3/4 449/3/4 451/3/4
f 452/1/4 453/1/4 458/1/4
f 453/1/4 454/1/4 458/1/4
f 454/3/4 455/3/4 459/3/4
f 458/1/4 454/1/4 459/1/4
f 459/3/4 455/3/4 460/3/4
f 456/1/4 457/1/4 461/1/4
f 457/1/4 458/1/4 461/1/4
f 461/1/4 458/1/4 462/1/4
f 463/1/4 464/1/4 465/1/4
f 463/1/4 465/1/4 467/1/4
f 465/1/4 466/1/4 467/1/4
f 467/1/4 466/1/4 468/1/4
f 468/3/4 469/3/4 470/3/4
f 470/3/4 469/3/4 471/3/4
f 472/1/4 473/1/4 477/1/4
f 473/1/4 474/1/4 477/1/4
f 477/1/4 474/1/4 478/1/4
f 478/1/4 474/1/4 479/1/4
f 479/1/4 474/1/4 480/1/4
f 475/1/4 476/1/4 482/1/4
f 482/1/4 476/1/4 483/1/4
f 476/2/4 477/2/4 484/2/4
f 483/1/4 476/1/4 484/1/4
f 477/2/4 478/2/4 484/2/4
f 478/1/4 479/1/4 485/1/4
f 484/2/4 478/2/4 485/2/4
f 485/1/4 479/1/4 486/1/4
f 482/1/4 483/1/4 487/1/4
f 481/1/4 482/1/4 487/1/4
f 487/1/4 483/1/4 488/1/4
f 483/2/4 484/2/4 489/2/4
f 488/1/4 483/1/4 489/1/4
f 489/2/4 484/2/4 490/2/4
f 481/1/4 487/1/4 491/1/4
f 487/3/4 488/3/4 492/3/4
f 491/1/4 487/1/4 492/1/4
f 492/3/4 488/3/4 493/3/4
f 494/1/4 495/1/4 496/1/4
f 494/1/4 496/1/4 498/1/4
f 496/3/4 497/3/4 499/3/4
f 498/1/4 496/1/4 499/1/4
f 499/3/4 497/3/4 500/3/4
f 501/3/4 502/3/4 503/3/4
f 503/3/4 502/3/4 504/3/4
f 505/1/4 506/1/4 507/1/4
f 507/1/4 506/1/4 508/1/4
f 508/1/4 506/1/4 509/1/4
f 510/2/4 511/2/4 513/2/4
f 511/3/4 512/3/4 514/3/4
f 513/2/4 511/2/4 514/2/4
f 514/3/4 512/3/4 515/3/4
f 516/1/4 517/1/4 520/1/4
f 517/3/4 518/3/4 521/3/4
f 520/1/4 517/1/4 521/1/4
f 518/1/4 519/1/4 522/1/4
f 521/3/4 518/3/4 522/3/4
f 522/1/4 519/1/4 523/1/4
f 524/1/4 525/1/4 527/1/4
f 527/1/4 525/1/4 528/1/4
f 526/1/4 527/1/4 531/1/4
f 527/1/4 528/1/4 531/1/4
f 531/1/4 528/1/4 532/1/4
f 532/1/4 528/1/4 533/1/4
f 528/3/4 529/3/4 534/3/4
f 533/1/4 528/1/4 534/1/4
f 534/3/4 529/3/4 535/3/4
f 530/1/4 531/1/4 537/1/4
f 531/1/4 532/1/4 537/1/4
f 537/1/4 532/1/4 538/1/4
f 538/1/4 532/1/4 539/1/4
f 532/3/4 533/3/4 540/3/4
f 539/1/4 532/1/4 540/1/4
f 540/3/4 533/3/4 541/3/4
f 536/1/4 537/1/4 542/1/4
f 537/2/4 538/2/4 542/2/4
f 538/1/4 539/1/4 543/1/4
f 542/2/4 538/2/4 543/2/4
f 543/1/4 539/1/4 544/1/4
f 544/1/4 539/1/4 545/1/4
f 536/1/4 542/1/4 546/1/4
f 542/3/4 543/3/4 547/3/4
f 546/1/4 542/1/4 547/1/4
f 543/3/4 544/3/4 547/3/4
f 547/3/4 544/3/4 548/3/4
f 536/1/4 546/1/4 549/1/4
f 546/2/4 547/2/4 549/2/4
f 549/2/4 547/2/4 550/2/4
f 536/1/4 549/1/4 551/1/4
f 551/1/4 549/1/4 552/1/4
f 536/1/4 551/1/4 553/1/4
f 553/1/4 551/1/4 554/1/4
f 555/1/4 556/1/4 558/1/4
f 558/1/4 556/1/4 559/1/4
f 556/3/4 557/3/4 560/3/4
f 559/1/4 556/1/4 560/1/4
f 560/3/4 557/3/4 561/3/4
f 561/1/4 562/1/4 563/1/4
f 560/1/4 561/1/4 563/1/4
f 559/1/4 560/1/4 563/1/4
f 563/1/4 562/1/4 564/1/4
f 564/1/4 562/1/4 565/1/4
f 559/1/4 563/1/4 567/1/4
f 563/2/4 564/2/4 568/2/4
f 567/1/4 563/1/4 568/1/4
f 568/2/4 564/2/4 569/2/4
f 569/2/4 564/2/4 570/2/4
f 566/1/4 567/1/4 571/1/4
f 567/1/4 568/1/4 571/1/4
f 568/1/4 569/1/4 571/1/4
f 571/1/4 569/1/4 572/1/4
f 573/1/4 574/1/4 575/1/4
f 575/1/4 574/1/4 576/1/4
f 577/1/4 578/1/4 579/1/4
f 579/1/4 578/1/4 580/1/4
f 580/1/4 578/1/4 581/1/4
f 577/1/4 579/1/4 582/1/4
f 579/3/4 580/3/4 583/3/4
f 582/1/4 579/1/4 583/1/4
f 583/3/4 580/3/4 584/3/4
f 587/1/5 586/1/5 585/1/5
f 595/1/5 590/1/5 589/1/5
f 595/2/5 591/2/5 590/2/5
f 596/1/5 592/1/5 591/1/5
f 596/2/5 591/2/5 595/2/5
f 597/1/5 594/1/5 593/1/5
f 598/1/5 587/1/5 585/1/5
f 598/1/5 588/1/5 587/1/5
f 599/1/5 597/1/5 593/1/5
f 599/1/5 598/1/5 597/1/5
f 600/1/5 598/1/5 599/1/5
f 601/1/5 588/1/5 598/1/5
f 601/1/5 598/1/5 600/1/5
f 602/1/5 596/1/5 595/1/5
f 602/1/5 595/1/5 589/1/5
f 603/1/5 596/1/5 602/1/5
f 604/1/5 592/1/5 596/1/5
f 604/1/5 596/1/5 603/1/5
f 605/1/5 601/1/5 600/1/5
f 605/1/5 602/1/5 601/1/5
f 605/1/5 603/1/5 602/1/5
f 606/1/5 603/1/5 605/1/5
f 607/1/5 603/1/5 606/1/5
f 610/1/5 608/1/5 607/1/5
f 610/1/5 607/1/5 606/1/5
f 611/1/5 608/1/5 610/1/5
f 613/1/5 610/1/5 609/1/5
f 613/1/5 612/1/5 611/1/5
f 613/1/5 611/1/5 610/1/5
f 614/1/5 612/1/5 613/1/5
f 615/1/5 613/1/5 609/1/5
f 616/1/5 613/1/5 615/1/5
f 617/1/5 613/1/5 616/1/5
f 618/1/5 613/1/5 617/1/5
f 621/1/5 617/1/5 616/1/5
f 622/1/5 617/1/5 621/1/5
f 623/1/5 620/1/5 619/1/5
f 624/1/5 620/1/5 623/1/5
f 625/1/6 626/1/6 627/1/6
f 627/1/6 626/1/6 628/1/6
f 629/1/6 630/1/6 631/1/6
f 631/1/6 630/1/6 632/1/6
f 632/1/6 633/1/6 634/1/6
f 634/1/6 633/1/6 635/1/6
f 636/1/6 637/1/6 638/1/6
f 638/1/6 637/1/6 639/1/6
f 640/3/6 641/3/6 642/3/6
f 642/3/6 641/3/6 643/3/6
f 644/1/6 645/1/6 646/1/6
f 646/1/6 645/1/6 647/1/6
f 647/1/6 645/1/6 648/1/6
f 649/1/6 650/1/6 653/1/6
f 653/1/6 650/1/6 654/1/6
f 651/3/6 652/3/6 655/3/6
f 656/1/6 657/1/6 658/1/6
f 658/1/6 657/1/6 659/1/6
f 655/3/6 652/3/6 662/3/6
f 662/3/6 652/3/6 663/3/6
f 660/1/6 661/1/6 666/1/6
f 666/1/6 661/1/6 667/1/6
f 664/3/6 665/3/6 668/3/6
f 668/3/6 665/3/6 669/3/6
f 670/3/6 671/3/6 672/3/6
f 672/3/6 671/3/6 673/3/6
f 674/3/6 675/3/6 676/3/6
f 676/3/6 675/3/6 677/3/6
f 678/3/6 679/3/6 680/3/6
f 680/3/6 679/3/6 681/3/6
f 681/1/6 682/1/6 685/1/6
f 685/1/6 682/1/6 686/1/6
f 683/1/6 684/1/6 687/1/6
f 687/1/6 684/1/6 688/1/6
f 688/1/6 689/1/6 690/1/6
f 690/1/6 689/1/6 691/1/6
f 692/2/6 693/2/6 696/2/6
f 696/2/6 693/2/6 697/2/6
f 694/1/6 695/1/6 698/1/6
f 698/1/6 695/1/6 699/1/6
f 700/3/6 701/3/6 704/3/6
f 704/3/6 701/3/6 705/3/6
f 702/3/6 703/3/6 706/3/6
f 706/3/6 703/3/6 707/3/6
f 705/3/6 706/3/6 711/3/6
f 707/3/6 708/3/6 711/3/6
f 706/3/6 707/3/6 711/3/6
f 711/3/6 708/3/6 712/3/6
f 712/3/6 708/3/6 713/3/6
f 713/3/6 708/3/6 714/3/6
f 709/2/6 710/2/6 715/2/6
f 715/2/6 710/2/6 716/2/6
f 712/3/6 713/3/6 717/3/6
f 717/3/6 713/3/6 718/3/6
f 719/1/6 720/1/6 721/1/6
f 721/1/6 720/1/6 722/1/6
f 723/1/6 724/1/6 727/1/6
f 727/1/6 724/1/6 728/1/6
f 725/3/6 726/3/6 730/3/6
f 730/3/6 726/3/6 731/3/6
f 729/1/6 730/1/6 733/1/6
f 731/3/6 732/3/6 734/3/6
f 733/1/6 730/1/6 734/1/6
f 730/3/6 731/3/6 734/3/6
f 734/3/6 732/3/6 735/3/6
f 735/3/6 732/3/6 736/3/6
f 734/3/6 735/3/6 737/3/6
f 737/3/6 735/3/6 738/3/6
f 739/3/6 740/3/6 742/3/6
f 741/3/6 742/3/6 743/3/6
f 742/3/6 740/3/6 744/3/6
f 743/3/6 742/3/6 744/3/6
f 745/1/6 746/1/6 749/1/6
f 749/1/6 746/1/6 750/1/6
f 747/2/6 748/2/6 751/2/6
f 751/2/6 748/2/6 752/2/6
f 753/1/6 754/1/6 755/1/6
f 755/1/6 754/1/6 756/1/6
f 757/1/6 758/1/6 759/1/6
f 759/1/6 758/1/6 760/1/6
f 761/3/6 762/3/6 765/3/6
f 765/3/6 762/3/6 766/3/6
f 763/1/6 764/1/6 767/1/6
f 767/1/6 764/1/6 768/1/6
f 769/3/6 770/3/6 771/3/6
f 771/3/6 770/3/6 772/3/6
f 773/1/6 774/1/6 776/1/6
f 776/1/6 774/1/6 777/1/6
f 775/1/6 776/1/6 778/1/6
f 778/1/6 776/1/6 779/1/6
f 780/3/6 781/3/6 782/3/6
f 782/3/6 781/3/6 783/3/6
f 784/1/6 785/1/6 786/1/6
f 786/1/6 785/1/6 787/1/6
f 788/1/6 789/1/6 790/1/6
f 790/1/6 789/1/6 791/1/6
f 791/1/6 792/1/6 794/1/6
f 794/1/6 792/1/6 795/1/6
f 793/1/6 794/1/6 796/1/6
f 796/1/6 794/1/6 797/1/6
f 798/1/6 799/1/6 800/1/6
f 800/1/6 799/1/6 801/1/6
f 802/3/6 803/3/6 804/3/6
f 804/3/6 803/3/6 805/3/6
