# MagicaVoxel @ Ephtracy

# group
g 强蓝光

# material
mtllib 强蓝光.mtl
usemtl palette

# normals
vn -1 0 0
vn 1 0 0
vn 0 0 1
vn 0 0 -1
vn 0 -1 0
vn 0 1 0

# texcoords
vt 0.775391 0.5

# verts
v -53 34 26
v -53 34 13
v -53 35 26
v -53 35 13
v -45 34 5
v -45 34 -5
v -45 42 5
v -45 42 -5
v -38 34 26
v -38 34 13
v -38 34 5
v -38 34 -5
v -38 35 26
v -38 35 13
v -38 42 5
v -38 42 -5
v -27 52 -15
v -27 52 -17
v -27 54 -15
v -27 54 -17
v -21 35 28
v -21 35 23
v -21 36 28
v -21 36 23
v -18 36 -32
v -18 36 -40
v -18 37 -32
v -18 37 -40
v -16 35 -19
v -16 35 -23
v -16 36 -19
v -16 36 -23
v -14 35 -8
v -14 35 -16
v -14 36 -8
v -14 36 -16
v -14 76 27
v -14 76 26
v -14 77 27
v -14 77 26
v -7 35 -8
v -7 35 -16
v -7 35 -19
v -7 35 -23
v -7 36 -8
v -7 36 -16
v -7 36 -19
v -7 36 -23
v -7 36 -32
v -7 36 -40
v -7 37 -32
v -7 37 -40
v 0 80 49
v 0 80 47
v 0 81 49
v 0 81 47
v 5 36 -20
v 5 36 -24
v 5 37 -20
v 5 37 -24
v 5 80 50
v 5 80 48
v 5 81 50
v 5 81 48
v 7 48 5
v 7 48 2
v 7 49 29
v 7 49 25
v 7 49 5
v 7 49 2
v 7 50 29
v 7 50 25
v 8 46 5
v 8 46 2
v 8 48 5
v 8 48 2
v 9 62 -40
v 9 62 -41
v 9 63 -40
v 9 63 -41
v 10 41 20
v 10 41 8
v 10 42 20
v 10 42 8
v 11 34 -36
v 11 34 -39
v 11 35 -36
v 11 35 -39
v 17 52 3
v 17 52 -1
v 17 53 3
v 17 53 -1
v 18 35 29
v 18 35 25
v 18 39 29
v 18 39 25
v 20 52 3
v 20 52 -0
v 20 53 3
v 20 53 -0
v 21 58 5
v 21 58 -3
v 21 63 5
v 21 63 1
v 21 64 1
v 21 64 -3
v 23 35 29
v 23 35 25
v 23 39 29
v 23 39 25
v 23 61 -39
v 23 61 -40
v 23 62 -40
v 23 62 -41
v 23 63 -39
v 23 63 -41
v 25 63 5
v 25 63 -3
v 25 64 5
v 25 64 -3
v 30 72 -32
v 30 72 -38
v 30 73 -32
v 30 73 -38
v 31 61 51
v 31 61 44
v 31 62 51
v 31 62 44
v 31 76 49
v 31 76 42
v 31 77 49
v 31 77 42
v 32 79 33
v 32 79 26
v 32 80 33
v 32 80 26
v 36 77 -31
v 36 77 -37
v 36 78 -31
v 36 78 -37
v 38 61 47
v 38 61 44
v 38 62 47
v 38 62 44
v 43 65 33
v 43 65 30
v 43 66 33
v 43 66 30
v -39 34 26
v -39 34 13
v -39 34 5
v -39 34 -5
v -39 35 26
v -39 35 13
v -39 42 5
v -39 42 -5
v -35 34 5
v -35 34 -2
v -35 42 5
v -35 42 -2
v -34 34 -2
v -34 34 -5
v -34 42 -2
v -34 42 -5
v -32 34 26
v -32 34 13
v -32 35 26
v -32 35 13
v -26 52 -15
v -26 52 -17
v -26 54 -15
v -26 54 -17
v -13 76 27
v -13 76 26
v -13 77 27
v -13 77 26
v -8 35 -8
v -8 35 -16
v -8 35 -19
v -8 35 -23
v -8 36 -8
v -8 36 -16
v -8 36 -19
v -8 36 -23
v -8 36 -32
v -8 36 -40
v -8 37 -32
v -8 37 -40
v -5 35 -8
v -5 35 -16
v -5 36 -8
v -5 36 -16
v -3 35 -19
v -3 35 -23
v -3 36 -19
v -3 36 -23
v -2 36 -32
v -2 36 -40
v -2 37 -32
v -2 37 -40
v 0 35 28
v 0 35 23
v 0 36 28
v 0 36 23
v 1 80 49
v 1 80 47
v 1 81 49
v 1 81 47
v 6 80 50
v 6 80 49
v 6 81 50
v 6 81 49
v 7 80 49
v 7 80 48
v 7 81 49
v 7 81 48
v 10 46 5
v 10 46 2
v 10 49 5
v 10 49 2
v 16 62 -40
v 16 62 -41
v 16 63 -40
v 16 63 -41
v 17 41 20
v 17 41 8
v 17 42 20
v 17 42 8
v 18 52 3
v 18 52 2
v 18 53 3
v 18 53 2
v 19 49 29
v 19 49 25
v 19 50 29
v 19 50 25
v 19 52 2
v 19 52 -0
v 19 53 2
v 19 53 -0
v 22 35 29
v 22 35 25
v 22 39 29
v 22 39 25
v 24 63 1
v 24 63 -3
v 24 64 1
v 24 64 -3
v 26 34 -36
v 26 34 -39
v 26 35 29
v 26 35 25
v 26 35 -36
v 26 35 -39
v 26 36 -20
v 26 36 -24
v 26 37 -20
v 26 37 -24
v 26 39 29
v 26 39 25
v 27 61 -39
v 27 61 -40
v 27 62 -40
v 27 62 -41
v 27 63 -39
v 27 63 -41
v 32 59 5
v 32 59 3
v 32 62 3
v 32 62 -3
v 32 63 5
v 32 63 -3
v 34 58 5
v 34 58 -3
v 34 59 5
v 34 59 3
v 34 62 3
v 34 62 -3
v 34 63 5
v 34 63 -3
v 34 64 5
v 34 64 -3
v 34 72 -32
v 34 72 -38
v 34 73 -32
v 34 73 -38
v 35 61 51
v 35 61 44
v 35 62 51
v 35 62 44
v 35 79 33
v 35 79 26
v 35 80 33
v 35 80 26
v 36 76 49
v 36 76 42
v 36 77 49
v 36 77 42
v 38 52 3
v 38 52 -1
v 38 53 3
v 38 53 -1
v 42 61 47
v 42 61 44
v 42 62 47
v 42 62 44
v 44 65 33
v 44 65 30
v 44 66 33
v 44 66 30
v 46 77 -31
v 46 77 -37
v 46 78 -31
v 46 78 -37
v 31 61 51
v 31 62 51
v 35 61 51
v 35 62 51
v 5 80 50
v 5 81 50
v 6 80 50
v 6 81 50
v 0 80 49
v 0 81 49
v 1 80 49
v 1 81 49
v 6 80 49
v 6 81 49
v 7 80 49
v 7 81 49
v 31 76 49
v 31 77 49
v 36 76 49
v 36 77 49
v 38 61 47
v 38 62 47
v 42 61 47
v 42 62 47
v 32 79 33
v 32 80 33
v 35 79 33
v 35 80 33
v 43 65 33
v 43 66 33
v 44 65 33
v 44 66 33
v 7 49 29
v 7 50 29
v 18 35 29
v 18 39 29
v 19 49 29
v 19 50 29
v 22 35 29
v 22 39 29
v 23 35 29
v 23 39 29
v 26 35 29
v 26 39 29
v -21 35 28
v -21 36 28
v 0 35 28
v 0 36 28
v -14 76 27
v -14 77 27
v -13 76 27
v -13 77 27
v -53 34 26
v -53 35 26
v -39 34 26
v -39 35 26
v -38 34 26
v -38 35 26
v -32 34 26
v -32 35 26
v 10 41 20
v 10 42 20
v 17 41 20
v 17 42 20
v -45 34 5
v -45 42 5
v -39 34 5
v -39 42 5
v -38 34 5
v -38 42 5
v -35 34 5
v -35 42 5
v 7 48 5
v 7 49 5
v 8 46 5
v 8 48 5
v 10 46 5
v 10 49 5
v 21 58 5
v 21 63 5
v 25 63 5
v 25 64 5
v 32 59 5
v 32 63 5
v 34 58 5
v 34 59 5
v 34 63 5
v 34 64 5
v 17 52 3
v 17 53 3
v 18 52 3
v 18 53 3
v 20 52 3
v 20 53 3
v 32 59 3
v 32 62 3
v 34 59 3
v 34 62 3
v 38 52 3
v 38 53 3
v 18 52 2
v 18 53 2
v 19 52 2
v 19 53 2
v 21 63 1
v 21 64 1
v 24 63 1
v 24 64 1
v 19 52 -0
v 19 53 -0
v 20 52 -0
v 20 53 -0
v -35 34 -2
v -35 42 -2
v -34 34 -2
v -34 42 -2
v -14 35 -8
v -14 36 -8
v -8 35 -8
v -8 36 -8
v -7 35 -8
v -7 36 -8
v -5 35 -8
v -5 36 -8
v -27 52 -15
v -27 54 -15
v -26 52 -15
v -26 54 -15
v -16 35 -19
v -16 36 -19
v -8 35 -19
v -8 36 -19
v -7 35 -19
v -7 36 -19
v -3 35 -19
v -3 36 -19
v 5 36 -20
v 5 37 -20
v 26 36 -20
v 26 37 -20
v 36 77 -31
v 36 78 -31
v 46 77 -31
v 46 78 -31
v -18 36 -32
v -18 37 -32
v -8 36 -32
v -8 37 -32
v -7 36 -32
v -7 37 -32
v -2 36 -32
v -2 37 -32
v 30 72 -32
v 30 73 -32
v 34 72 -32
v 34 73 -32
v 11 34 -36
v 11 35 -36
v 26 34 -36
v 26 35 -36
v 23 61 -39
v 23 63 -39
v 27 61 -39
v 27 63 -39
v 9 62 -40
v 9 63 -40
v 16 62 -40
v 16 63 -40
v 5 80 48
v 5 81 48
v 7 80 48
v 7 81 48
v 0 80 47
v 0 81 47
v 1 80 47
v 1 81 47
v 31 61 44
v 31 62 44
v 35 61 44
v 35 62 44
v 38 61 44
v 38 62 44
v 42 61 44
v 42 62 44
v 31 76 42
v 31 77 42
v 36 76 42
v 36 77 42
v 43 65 30
v 43 66 30
v 44 65 30
v 44 66 30
v -14 76 26
v -14 77 26
v -13 76 26
v -13 77 26
v 32 79 26
v 32 80 26
v 35 79 26
v 35 80 26
v 7 49 25
v 7 50 25
v 18 35 25
v 18 39 25
v 19 49 25
v 19 50 25
v 22 35 25
v 22 39 25
v 23 35 25
v 23 39 25
v 26 35 25
v 26 39 25
v -21 35 23
v -21 36 23
v 0 35 23
v 0 36 23
v -53 34 13
v -53 35 13
v -39 34 13
v -39 35 13
v -38 34 13
v -38 35 13
v -32 34 13
v -32 35 13
v 10 41 8
v 10 42 8
v 17 41 8
v 17 42 8
v 7 48 2
v 7 49 2
v 8 46 2
v 8 48 2
v 10 46 2
v 10 49 2
v 17 52 -1
v 17 53 -1
v 38 52 -1
v 38 53 -1
v 21 58 -3
v 21 64 -3
v 24 63 -3
v 24 64 -3
v 25 63 -3
v 25 64 -3
v 32 62 -3
v 32 63 -3
v 34 58 -3
v 34 62 -3
v 34 63 -3
v 34 64 -3
v -45 34 -5
v -45 42 -5
v -39 34 -5
v -39 42 -5
v -38 34 -5
v -38 42 -5
v -34 34 -5
v -34 42 -5
v -14 35 -16
v -14 36 -16
v -8 35 -16
v -8 36 -16
v -7 35 -16
v -7 36 -16
v -5 35 -16
v -5 36 -16
v -27 52 -17
v -27 54 -17
v -26 52 -17
v -26 54 -17
v -16 35 -23
v -16 36 -23
v -8 35 -23
v -8 36 -23
v -7 35 -23
v -7 36 -23
v -3 35 -23
v -3 36 -23
v 5 36 -24
v 5 37 -24
v 26 36 -24
v 26 37 -24
v 36 77 -37
v 36 78 -37
v 46 77 -37
v 46 78 -37
v 30 72 -38
v 30 73 -38
v 34 72 -38
v 34 73 -38
v 11 34 -39
v 11 35 -39
v 26 34 -39
v 26 35 -39
v -18 36 -40
v -18 37 -40
v -8 36 -40
v -8 37 -40
v -7 36 -40
v -7 37 -40
v -2 36 -40
v -2 37 -40
v 23 61 -40
v 23 62 -40
v 27 61 -40
v 27 62 -40
v 9 62 -41
v 9 63 -41
v 16 62 -41
v 16 63 -41
v 23 62 -41
v 23 63 -41
v 27 62 -41
v 27 63 -41
v -53 34 26
v -39 34 26
v -38 34 26
v -32 34 26
v -53 34 13
v -39 34 13
v -38 34 13
v -32 34 13
v -45 34 5
v -39 34 5
v -38 34 5
v -35 34 5
v -35 34 -2
v -34 34 -2
v -45 34 -5
v -39 34 -5
v -38 34 -5
v -34 34 -5
v 11 34 -36
v 26 34 -36
v 11 34 -39
v 26 34 -39
v 18 35 29
v 22 35 29
v 23 35 29
v 26 35 29
v -21 35 28
v 0 35 28
v 18 35 25
v 22 35 25
v 23 35 25
v 26 35 25
v -21 35 23
v 0 35 23
v -14 35 -8
v -8 35 -8
v -7 35 -8
v -5 35 -8
v -14 35 -16
v -8 35 -16
v -7 35 -16
v -5 35 -16
v -16 35 -19
v -8 35 -19
v -7 35 -19
v -3 35 -19
v -16 35 -23
v -8 35 -23
v -7 35 -23
v -3 35 -23
v 5 36 -20
v 26 36 -20
v 5 36 -24
v 26 36 -24
v -18 36 -32
v -8 36 -32
v -7 36 -32
v -2 36 -32
v -18 36 -40
v -8 36 -40
v -7 36 -40
v -2 36 -40
v 10 41 20
v 17 41 20
v 10 41 8
v 17 41 8
v 8 46 5
v 10 46 5
v 8 46 2
v 10 46 2
v 7 48 5
v 8 48 5
v 7 48 2
v 8 48 2
v 7 49 29
v 19 49 29
v 7 49 25
v 19 49 25
v 17 52 3
v 18 52 3
v 20 52 3
v 38 52 3
v 18 52 2
v 19 52 2
v 19 52 -0
v 20 52 -0
v 17 52 -1
v 38 52 -1
v -27 52 -15
v -26 52 -15
v -27 52 -17
v -26 52 -17
v 21 58 5
v 34 58 5
v 21 58 -3
v 34 58 -3
v 31 61 51
v 35 61 51
v 38 61 47
v 42 61 47
v 31 61 44
v 35 61 44
v 38 61 44
v 42 61 44
v 23 61 -39
v 27 61 -39
v 23 61 -40
v 27 61 -40
v 9 62 -40
v 16 62 -40
v 23 62 -40
v 27 62 -40
v 9 62 -41
v 16 62 -41
v 23 62 -41
v 27 62 -41
v 32 63 5
v 34 63 5
v 32 63 -3
v 34 63 -3
v 43 65 33
v 44 65 33
v 43 65 30
v 44 65 30
v 30 72 -32
v 34 72 -32
v 30 72 -38
v 34 72 -38
v 31 76 49
v 36 76 49
v 31 76 42
v 36 76 42
v -14 76 27
v -13 76 27
v -14 76 26
v -13 76 26
v 36 77 -31
v 46 77 -31
v 36 77 -37
v 46 77 -37
v 32 79 33
v 35 79 33
v 32 79 26
v 35 79 26
v 5 80 50
v 6 80 50
v 0 80 49
v 1 80 49
v 6 80 49
v 7 80 49
v 5 80 48
v 7 80 48
v 0 80 47
v 1 80 47
v -53 35 26
v -39 35 26
v -38 35 26
v -32 35 26
v -53 35 13
v -39 35 13
v -38 35 13
v -32 35 13
v 11 35 -36
v 26 35 -36
v 11 35 -39
v 26 35 -39
v -21 36 28
v 0 36 28
v -21 36 23
v 0 36 23
v -14 36 -8
v -8 36 -8
v -7 36 -8
v -5 36 -8
v -14 36 -16
v -8 36 -16
v -7 36 -16
v -5 36 -16
v -16 36 -19
v -8 36 -19
v -7 36 -19
v -3 36 -19
v -16 36 -23
v -8 36 -23
v -7 36 -23
v -3 36 -23
v 5 37 -20
v 26 37 -20
v 5 37 -24
v 26 37 -24
v -18 37 -32
v -8 37 -32
v -7 37 -32
v -2 37 -32
v -18 37 -40
v -8 37 -40
v -7 37 -40
v -2 37 -40
v 18 39 29
v 22 39 29
v 23 39 29
v 26 39 29
v 18 39 25
v 22 39 25
v 23 39 25
v 26 39 25
v 10 42 20
v 17 42 20
v 10 42 8
v 17 42 8
v -45 42 5
v -39 42 5
v -38 42 5
v -35 42 5
v -35 42 -2
v -34 42 -2
v -45 42 -5
v -39 42 -5
v -38 42 -5
v -34 42 -5
v 7 49 5
v 10 49 5
v 7 49 2
v 10 49 2
v 7 50 29
v 19 50 29
v 7 50 25
v 19 50 25
v 17 53 3
v 18 53 3
v 20 53 3
v 38 53 3
v 18 53 2
v 19 53 2
v 19 53 -0
v 20 53 -0
v 17 53 -1
v 38 53 -1
v -27 54 -15
v -26 54 -15
v -27 54 -17
v -26 54 -17
v 32 59 5
v 34 59 5
v 32 59 3
v 34 59 3
v 31 62 51
v 35 62 51
v 38 62 47
v 42 62 47
v 31 62 44
v 35 62 44
v 38 62 44
v 42 62 44
v 32 62 3
v 34 62 3
v 32 62 -3
v 34 62 -3
v 21 63 5
v 25 63 5
v 21 63 1
v 24 63 1
v 24 63 -3
v 25 63 -3
v 23 63 -39
v 27 63 -39
v 9 63 -40
v 16 63 -40
v 9 63 -41
v 16 63 -41
v 23 63 -41
v 27 63 -41
v 25 64 5
v 34 64 5
v 21 64 1
v 24 64 1
v 21 64 -3
v 24 64 -3
v 25 64 -3
v 34 64 -3
v 43 66 33
v 44 66 33
v 43 66 30
v 44 66 30
v 30 73 -32
v 34 73 -32
v 30 73 -38
v 34 73 -38
v 31 77 49
v 36 77 49
v 31 77 42
v 36 77 42
v -14 77 27
v -13 77 27
v -14 77 26
v -13 77 26
v 36 78 -31
v 46 78 -31
v 36 78 -37
v 46 78 -37
v 32 80 33
v 35 80 33
v 32 80 26
v 35 80 26
v 5 81 50
v 6 81 50
v 0 81 49
v 1 81 49
v 6 81 49
v 7 81 49
v 5 81 48
v 7 81 48
v 0 81 47
v 1 81 47

# faces
f 3/1/1 2/1/1 1/1/1
f 4/1/1 2/1/1 3/1/1
f 7/1/1 6/1/1 5/1/1
f 8/1/1 6/1/1 7/1/1
f 13/1/1 10/1/1 9/1/1
f 14/1/1 10/1/1 13/1/1
f 15/1/1 12/1/1 11/1/1
f 16/1/1 12/1/1 15/1/1
f 19/1/1 18/1/1 17/1/1
f 20/1/1 18/1/1 19/1/1
f 23/1/1 22/1/1 21/1/1
f 24/1/1 22/1/1 23/1/1
f 27/1/1 26/1/1 25/1/1
f 28/1/1 26/1/1 27/1/1
f 31/1/1 30/1/1 29/1/1
f 32/1/1 30/1/1 31/1/1
f 35/1/1 34/1/1 33/1/1
f 36/1/1 34/1/1 35/1/1
f 39/1/1 38/1/1 37/1/1
f 40/1/1 38/1/1 39/1/1
f 45/1/1 42/1/1 41/1/1
f 46/1/1 42/1/1 45/1/1
f 47/1/1 44/1/1 43/1/1
f 48/1/1 44/1/1 47/1/1
f 51/1/1 50/1/1 49/1/1
f 52/1/1 50/1/1 51/1/1
f 55/1/1 54/1/1 53/1/1
f 56/1/1 54/1/1 55/1/1
f 59/1/1 58/1/1 57/1/1
f 60/1/1 58/1/1 59/1/1
f 63/1/1 62/1/1 61/1/1
f 64/1/1 62/1/1 63/1/1
f 69/1/1 66/1/1 65/1/1
f 70/1/1 66/1/1 69/1/1
f 71/1/1 68/1/1 67/1/1
f 72/1/1 68/1/1 71/1/1
f 75/1/1 74/1/1 73/1/1
f 76/1/1 74/1/1 75/1/1
f 79/1/1 78/1/1 77/1/1
f 80/1/1 78/1/1 79/1/1
f 83/1/1 82/1/1 81/1/1
f 84/1/1 82/1/1 83/1/1
f 87/1/1 86/1/1 85/1/1
f 88/1/1 86/1/1 87/1/1
f 91/1/1 90/1/1 89/1/1
f 92/1/1 90/1/1 91/1/1
f 95/1/1 94/1/1 93/1/1
f 96/1/1 94/1/1 95/1/1
f 99/1/1 98/1/1 97/1/1
f 100/1/1 98/1/1 99/1/1
f 103/1/1 102/1/1 101/1/1
f 104/1/1 102/1/1 103/1/1
f 105/1/1 102/1/1 104/1/1
f 106/1/1 102/1/1 105/1/1
f 109/1/1 108/1/1 107/1/1
f 110/1/1 108/1/1 109/1/1
f 113/1/1 112/1/1 111/1/1
f 115/1/1 113/1/1 111/1/1
f 115/1/1 114/1/1 113/1/1
f 116/1/1 114/1/1 115/1/1
f 119/1/1 118/1/1 117/1/1
f 120/1/1 118/1/1 119/1/1
f 123/1/1 122/1/1 121/1/1
f 124/1/1 122/1/1 123/1/1
f 127/1/1 126/1/1 125/1/1
f 128/1/1 126/1/1 127/1/1
f 131/1/1 130/1/1 129/1/1
f 132/1/1 130/1/1 131/1/1
f 135/1/1 134/1/1 133/1/1
f 136/1/1 134/1/1 135/1/1
f 139/1/1 138/1/1 137/1/1
f 140/1/1 138/1/1 139/1/1
f 143/1/1 142/1/1 141/1/1
f 144/1/1 142/1/1 143/1/1
f 147/1/1 146/1/1 145/1/1
f 148/1/1 146/1/1 147/1/1
f 149/1/2 150/1/2 153/1/2
f 153/1/2 150/1/2 154/1/2
f 151/1/2 152/1/2 155/1/2
f 155/1/2 152/1/2 156/1/2
f 157/1/2 158/1/2 159/1/2
f 159/1/2 158/1/2 160/1/2
f 161/1/2 162/1/2 163/1/2
f 163/1/2 162/1/2 164/1/2
f 165/1/2 166/1/2 167/1/2
f 167/1/2 166/1/2 168/1/2
f 169/1/2 170/1/2 171/1/2
f 171/1/2 170/1/2 172/1/2
f 173/1/2 174/1/2 175/1/2
f 175/1/2 174/1/2 176/1/2
f 177/1/2 178/1/2 181/1/2
f 181/1/2 178/1/2 182/1/2
f 179/1/2 180/1/2 183/1/2
f 183/1/2 180/1/2 184/1/2
f 185/1/2 186/1/2 187/1/2
f 187/1/2 186/1/2 188/1/2
f 189/1/2 190/1/2 191/1/2
f 191/1/2 190/1/2 192/1/2
f 193/1/2 194/1/2 195/1/2
f 195/1/2 194/1/2 196/1/2
f 197/1/2 198/1/2 199/1/2
f 199/1/2 198/1/2 200/1/2
f 201/1/2 202/1/2 203/1/2
f 203/1/2 202/1/2 204/1/2
f 205/1/2 206/1/2 207/1/2
f 207/1/2 206/1/2 208/1/2
f 209/1/2 210/1/2 211/1/2
f 211/1/2 210/1/2 212/1/2
f 213/1/2 214/1/2 215/1/2
f 215/1/2 214/1/2 216/1/2
f 217/1/2 218/1/2 219/1/2
f 219/1/2 218/1/2 220/1/2
f 221/1/2 222/1/2 223/1/2
f 223/1/2 222/1/2 224/1/2
f 225/1/2 226/1/2 227/1/2
f 227/1/2 226/1/2 228/1/2
f 229/1/2 230/1/2 231/1/2
f 231/1/2 230/1/2 232/1/2
f 233/1/2 234/1/2 235/1/2
f 235/1/2 234/1/2 236/1/2
f 237/1/2 238/1/2 239/1/2
f 239/1/2 238/1/2 240/1/2
f 241/1/2 242/1/2 243/1/2
f 243/1/2 242/1/2 244/1/2
f 245/1/2 246/1/2 247/1/2
f 247/1/2 246/1/2 248/1/2
f 249/1/2 250/1/2 253/1/2
f 253/1/2 250/1/2 254/1/2
f 255/1/2 256/1/2 257/1/2
f 257/1/2 256/1/2 258/1/2
f 251/1/2 252/1/2 259/1/2
f 259/1/2 252/1/2 260/1/2
f 261/1/2 262/1/2 263/1/2
f 261/1/2 263/1/2 265/1/2
f 263/1/2 264/1/2 265/1/2
f 265/1/2 264/1/2 266/1/2
f 267/1/2 268/1/2 269/1/2
f 267/1/2 269/1/2 271/1/2
f 269/1/2 270/1/2 271/1/2
f 271/1/2 270/1/2 272/1/2
f 273/1/2 274/1/2 275/1/2
f 275/1/2 274/1/2 276/1/2
f 276/1/2 274/1/2 277/1/2
f 277/1/2 274/1/2 278/1/2
f 279/1/2 280/1/2 281/1/2
f 281/1/2 280/1/2 282/1/2
f 283/1/2 284/1/2 285/1/2
f 285/1/2 284/1/2 286/1/2
f 287/1/2 288/1/2 289/1/2
f 289/1/2 288/1/2 290/1/2
f 291/1/2 292/1/2 293/1/2
f 293/1/2 292/1/2 294/1/2
f 295/1/2 296/1/2 297/1/2
f 297/1/2 296/1/2 298/1/2
f 299/1/2 300/1/2 301/1/2
f 301/1/2 300/1/2 302/1/2
f 303/1/2 304/1/2 305/1/2
f 305/1/2 304/1/2 306/1/2
f 307/1/2 308/1/2 309/1/2
f 309/1/2 308/1/2 310/1/2
f 311/1/2 312/1/2 313/1/2
f 313/1/2 312/1/2 314/1/2
f 317/1/3 316/1/3 315/1/3
f 318/1/3 316/1/3 317/1/3
f 321/1/3 320/1/3 319/1/3
f 322/1/3 320/1/3 321/1/3
f 325/1/3 324/1/3 323/1/3
f 326/1/3 324/1/3 325/1/3
f 329/1/3 328/1/3 327/1/3
f 330/1/3 328/1/3 329/1/3
f 333/1/3 332/1/3 331/1/3
f 334/1/3 332/1/3 333/1/3
f 337/1/3 336/1/3 335/1/3
f 338/1/3 336/1/3 337/1/3
f 341/1/3 340/1/3 339/1/3
f 342/1/3 340/1/3 341/1/3
f 345/1/3 344/1/3 343/1/3
f 346/1/3 344/1/3 345/1/3
f 351/1/3 348/1/3 347/1/3
f 352/1/3 348/1/3 351/1/3
f 353/1/3 350/1/3 349/1/3
f 354/1/3 350/1/3 353/1/3
f 357/1/3 356/1/3 355/1/3
f 358/1/3 356/1/3 357/1/3
f 361/1/3 360/1/3 359/1/3
f 362/1/3 360/1/3 361/1/3
f 365/1/3 364/1/3 363/1/3
f 366/1/3 364/1/3 365/1/3
f 369/1/3 368/1/3 367/1/3
f 370/1/3 368/1/3 369/1/3
f 373/1/3 372/1/3 371/1/3
f 374/1/3 372/1/3 373/1/3
f 377/1/3 376/1/3 375/1/3
f 378/1/3 376/1/3 377/1/3
f 381/1/3 380/1/3 379/1/3
f 382/1/3 380/1/3 381/1/3
f 385/1/3 384/1/3 383/1/3
f 386/1/3 384/1/3 385/1/3
f 390/1/3 388/1/3 387/1/3
f 391/1/3 390/1/3 389/1/3
f 392/1/3 388/1/3 390/1/3
f 392/1/3 390/1/3 391/1/3
f 395/1/3 394/1/3 393/1/3
f 397/1/3 395/1/3 393/1/3
f 397/1/3 396/1/3 395/1/3
f 398/1/3 396/1/3 397/1/3
f 399/1/3 397/1/3 393/1/3
f 400/1/3 397/1/3 399/1/3
f 401/1/3 396/1/3 398/1/3
f 402/1/3 396/1/3 401/1/3
f 405/1/3 404/1/3 403/1/3
f 406/1/3 404/1/3 405/1/3
f 411/1/3 410/1/3 409/1/3
f 412/1/3 410/1/3 411/1/3
f 413/1/3 408/1/3 407/1/3
f 414/1/3 408/1/3 413/1/3
f 417/1/3 416/1/3 415/1/3
f 418/1/3 416/1/3 417/1/3
f 421/1/3 420/1/3 419/1/3
f 422/1/3 420/1/3 421/1/3
f 425/1/3 424/1/3 423/1/3
f 426/1/3 424/1/3 425/1/3
f 429/1/3 428/1/3 427/1/3
f 430/1/3 428/1/3 429/1/3
f 433/1/3 432/1/3 431/1/3
f 434/1/3 432/1/3 433/1/3
f 437/1/3 436/1/3 435/1/3
f 438/1/3 436/1/3 437/1/3
f 441/1/3 440/1/3 439/1/3
f 442/1/3 440/1/3 441/1/3
f 445/1/3 444/1/3 443/1/3
f 446/1/3 444/1/3 445/1/3
f 449/1/3 448/1/3 447/1/3
f 450/1/3 448/1/3 449/1/3
f 453/1/3 452/1/3 451/1/3
f 454/1/3 452/1/3 453/1/3
f 457/1/3 456/1/3 455/1/3
f 458/1/3 456/1/3 457/1/3
f 461/1/3 460/1/3 459/1/3
f 462/1/3 460/1/3 461/1/3
f 465/1/3 464/1/3 463/1/3
f 466/1/3 464/1/3 465/1/3
f 469/1/3 468/1/3 467/1/3
f 470/1/3 468/1/3 469/1/3
f 473/1/3 472/1/3 471/1/3
f 474/1/3 472/1/3 473/1/3
f 477/1/3 476/1/3 475/1/3
f 478/1/3 476/1/3 477/1/3
f 481/1/3 480/1/3 479/1/3
f 482/1/3 480/1/3 481/1/3
f 483/1/4 484/1/4 485/1/4
f 485/1/4 484/1/4 486/1/4
f 487/1/4 488/1/4 489/1/4
f 489/1/4 488/1/4 490/1/4
f 491/1/4 492/1/4 493/1/4
f 493/1/4 492/1/4 494/1/4
f 495/1/4 496/1/4 497/1/4
f 497/1/4 496/1/4 498/1/4
f 499/1/4 500/1/4 501/1/4
f 501/1/4 500/1/4 502/1/4
f 503/1/4 504/1/4 505/1/4
f 505/1/4 504/1/4 506/1/4
f 507/1/4 508/1/4 509/1/4
f 509/1/4 508/1/4 510/1/4
f 511/1/4 512/1/4 513/1/4
f 513/1/4 512/1/4 514/1/4
f 515/1/4 516/1/4 519/1/4
f 519/1/4 516/1/4 520/1/4
f 517/1/4 518/1/4 521/1/4
f 521/1/4 518/1/4 522/1/4
f 523/1/4 524/1/4 525/1/4
f 525/1/4 524/1/4 526/1/4
f 527/1/4 528/1/4 529/1/4
f 529/1/4 528/1/4 530/1/4
f 531/1/4 532/1/4 533/1/4
f 533/1/4 532/1/4 534/1/4
f 535/1/4 536/1/4 537/1/4
f 537/1/4 536/1/4 538/1/4
f 539/1/4 540/1/4 541/1/4
f 541/1/4 540/1/4 542/1/4
f 543/1/4 544/1/4 546/1/4
f 545/1/4 546/1/4 547/1/4
f 546/1/4 544/1/4 548/1/4
f 547/1/4 546/1/4 548/1/4
f 549/1/4 550/1/4 551/1/4
f 551/1/4 550/1/4 552/1/4
f 553/1/4 554/1/4 555/1/4
f 555/1/4 554/1/4 556/1/4
f 553/1/4 555/1/4 557/1/4
f 553/1/4 557/1/4 559/1/4
f 557/1/4 558/1/4 559/1/4
f 559/1/4 558/1/4 560/1/4
f 553/1/4 559/1/4 561/1/4
f 561/1/4 559/1/4 562/1/4
f 560/1/4 558/1/4 563/1/4
f 563/1/4 558/1/4 564/1/4
f 565/1/4 566/1/4 567/1/4
f 567/1/4 566/1/4 568/1/4
f 569/1/4 570/1/4 571/1/4
f 571/1/4 570/1/4 572/1/4
f 573/1/4 574/1/4 575/1/4
f 575/1/4 574/1/4 576/1/4
f 577/1/4 578/1/4 579/1/4
f 579/1/4 578/1/4 580/1/4
f 581/1/4 582/1/4 583/1/4
f 583/1/4 582/1/4 584/1/4
f 585/1/4 586/1/4 587/1/4
f 587/1/4 586/1/4 588/1/4
f 589/1/4 590/1/4 591/1/4
f 591/1/4 590/1/4 592/1/4
f 593/1/4 594/1/4 595/1/4
f 595/1/4 594/1/4 596/1/4
f 597/1/4 598/1/4 599/1/4
f 599/1/4 598/1/4 600/1/4
f 601/1/4 602/1/4 603/1/4
f 603/1/4 602/1/4 604/1/4
f 605/1/4 606/1/4 607/1/4
f 607/1/4 606/1/4 608/1/4
f 609/1/4 610/1/4 611/1/4
f 611/1/4 610/1/4 612/1/4
f 613/1/4 614/1/4 615/1/4
f 615/1/4 614/1/4 616/1/4
f 617/1/4 618/1/4 619/1/4
f 619/1/4 618/1/4 620/1/4
f 621/1/4 622/1/4 623/1/4
f 623/1/4 622/1/4 624/1/4
f 625/1/4 626/1/4 627/1/4
f 627/1/4 626/1/4 628/1/4
f 633/1/5 630/1/5 629/1/5
f 634/1/5 630/1/5 633/1/5
f 635/1/5 632/1/5 631/1/5
f 636/1/5 632/1/5 635/1/5
f 641/1/5 640/1/5 639/1/5
f 643/1/5 638/1/5 637/1/5
f 644/1/5 638/1/5 643/1/5
f 645/1/5 642/1/5 641/1/5
f 645/1/5 641/1/5 639/1/5
f 646/1/5 642/1/5 645/1/5
f 649/1/5 648/1/5 647/1/5
f 650/1/5 648/1/5 649/1/5
f 657/1/5 652/1/5 651/1/5
f 658/1/5 652/1/5 657/1/5
f 659/1/5 654/1/5 653/1/5
f 660/1/5 654/1/5 659/1/5
f 661/1/5 656/1/5 655/1/5
f 662/1/5 656/1/5 661/1/5
f 667/1/5 664/1/5 663/1/5
f 668/1/5 664/1/5 667/1/5
f 669/1/5 666/1/5 665/1/5
f 670/1/5 666/1/5 669/1/5
f 675/1/5 672/1/5 671/1/5
f 676/1/5 672/1/5 675/1/5
f 677/1/5 674/1/5 673/1/5
f 678/1/5 674/1/5 677/1/5
f 681/1/5 680/1/5 679/1/5
f 682/1/5 680/1/5 681/1/5
f 687/1/5 684/1/5 683/1/5
f 688/1/5 684/1/5 687/1/5
f 689/1/5 686/1/5 685/1/5
f 690/1/5 686/1/5 689/1/5
f 693/1/5 692/1/5 691/1/5
f 694/1/5 692/1/5 693/1/5
f 697/1/5 696/1/5 695/1/5
f 698/1/5 696/1/5 697/1/5
f 701/1/5 700/1/5 699/1/5
f 702/1/5 700/1/5 701/1/5
f 705/1/5 704/1/5 703/1/5
f 706/1/5 704/1/5 705/1/5
f 711/1/5 708/1/5 707/1/5
f 713/1/5 712/1/5 711/1/5
f 714/1/5 710/1/5 709/1/5
f 715/1/5 713/1/5 711/1/5
f 715/1/5 714/1/5 713/1/5
f 715/1/5 711/1/5 707/1/5
f 716/1/5 710/1/5 714/1/5
f 716/1/5 714/1/5 715/1/5
f 719/1/5 718/1/5 717/1/5
f 720/1/5 718/1/5 719/1/5
f 723/1/5 722/1/5 721/1/5
f 724/1/5 722/1/5 723/1/5
f 729/1/5 726/1/5 725/1/5
f 730/1/5 726/1/5 729/1/5
f 731/1/5 728/1/5 727/1/5
f 732/1/5 728/1/5 731/1/5
f 735/1/5 734/1/5 733/1/5
f 736/1/5 734/1/5 735/1/5
f 741/1/5 738/1/5 737/1/5
f 742/1/5 738/1/5 741/1/5
f 743/1/5 740/1/5 739/1/5
f 744/1/5 740/1/5 743/1/5
f 747/1/5 746/1/5 745/1/5
f 748/1/5 746/1/5 747/1/5
f 751/1/5 750/1/5 749/1/5
f 752/1/5 750/1/5 751/1/5
f 755/1/5 754/1/5 753/1/5
f 756/1/5 754/1/5 755/1/5
f 759/1/5 758/1/5 757/1/5
f 760/1/5 758/1/5 759/1/5
f 763/1/5 762/1/5 761/1/5
f 764/1/5 762/1/5 763/1/5
f 767/1/5 766/1/5 765/1/5
f 768/1/5 766/1/5 767/1/5
f 771/1/5 770/1/5 769/1/5
f 772/1/5 770/1/5 771/1/5
f 777/1/5 774/1/5 773/1/5
f 779/1/5 777/1/5 773/1/5
f 779/1/5 778/1/5 777/1/5
f 780/1/5 778/1/5 779/1/5
f 781/1/5 776/1/5 775/1/5
f 782/1/5 776/1/5 781/1/5
f 783/1/6 784/1/6 787/1/6
f 787/1/6 784/1/6 788/1/6
f 785/1/6 786/1/6 789/1/6
f 789/1/6 786/1/6 790/1/6
f 791/1/6 792/1/6 793/1/6
f 793/1/6 792/1/6 794/1/6
f 795/1/6 796/1/6 797/1/6
f 797/1/6 796/1/6 798/1/6
f 799/1/6 800/1/6 803/1/6
f 803/1/6 800/1/6 804/1/6
f 801/1/6 802/1/6 805/1/6
f 805/1/6 802/1/6 806/1/6
f 807/1/6 808/1/6 811/1/6
f 811/1/6 808/1/6 812/1/6
f 809/1/6 810/1/6 813/1/6
f 813/1/6 810/1/6 814/1/6
f 815/1/6 816/1/6 817/1/6
f 817/1/6 816/1/6 818/1/6
f 819/1/6 820/1/6 823/1/6
f 823/1/6 820/1/6 824/1/6
f 821/1/6 822/1/6 825/1/6
f 825/1/6 822/1/6 826/1/6
f 827/1/6 828/1/6 831/1/6
f 831/1/6 828/1/6 832/1/6
f 829/1/6 830/1/6 833/1/6
f 833/1/6 830/1/6 834/1/6
f 835/1/6 836/1/6 837/1/6
f 837/1/6 836/1/6 838/1/6
f 841/1/6 842/1/6 843/1/6
f 839/1/6 840/1/6 845/1/6
f 845/1/6 840/1/6 846/1/6
f 843/1/6 844/1/6 847/1/6
f 841/1/6 843/1/6 847/1/6
f 847/1/6 844/1/6 848/1/6
f 849/1/6 850/1/6 851/1/6
f 851/1/6 850/1/6 852/1/6
f 853/1/6 854/1/6 855/1/6
f 855/1/6 854/1/6 856/1/6
f 857/1/6 858/1/6 861/1/6
f 861/1/6 862/1/6 863/1/6
f 859/1/6 860/1/6 864/1/6
f 861/1/6 863/1/6 865/1/6
f 863/1/6 864/1/6 865/1/6
f 857/1/6 861/1/6 865/1/6
f 864/1/6 860/1/6 866/1/6
f 865/1/6 864/1/6 866/1/6
f 867/1/6 868/1/6 869/1/6
f 869/1/6 868/1/6 870/1/6
f 871/1/6 872/1/6 873/1/6
f 873/1/6 872/1/6 874/1/6
f 875/1/6 876/1/6 879/1/6
f 879/1/6 876/1/6 880/1/6
f 877/1/6 878/1/6 881/1/6
f 881/1/6 878/1/6 882/1/6
f 883/1/6 884/1/6 885/1/6
f 885/1/6 884/1/6 886/1/6
f 887/1/6 888/1/6 889/1/6
f 889/1/6 888/1/6 890/1/6
f 890/1/6 888/1/6 891/1/6
f 891/1/6 888/1/6 892/1/6
f 895/1/6 896/1/6 897/1/6
f 897/1/6 896/1/6 898/1/6
f 893/1/6 894/1/6 899/1/6
f 899/1/6 894/1/6 900/1/6
f 903/1/6 904/1/6 905/1/6
f 905/1/6 904/1/6 906/1/6
f 901/1/6 902/1/6 907/1/6
f 907/1/6 902/1/6 908/1/6
f 909/1/6 910/1/6 911/1/6
f 911/1/6 910/1/6 912/1/6
f 913/1/6 914/1/6 915/1/6
f 915/1/6 914/1/6 916/1/6
f 917/1/6 918/1/6 919/1/6
f 919/1/6 918/1/6 920/1/6
f 921/1/6 922/1/6 923/1/6
f 923/1/6 922/1/6 924/1/6
f 925/1/6 926/1/6 927/1/6
f 927/1/6 926/1/6 928/1/6
f 929/1/6 930/1/6 931/1/6
f 931/1/6 930/1/6 932/1/6
f 933/1/6 934/1/6 937/1/6
f 933/1/6 937/1/6 939/1/6
f 937/1/6 938/1/6 939/1/6
f 939/1/6 938/1/6 940/1/6
f 935/1/6 936/1/6 941/1/6
f 941/1/6 936/1/6 942/1/6
